<svg width="48" height="48" viewBox="0 0 48 48" fill="none" xmlns="http://www.w3.org/2000/svg">
<g id="material-symbols-light:list-alt-outline">
<path id="Vector" d="M16.234 33.076C16.67 33.076 17.0347 32.9287 17.328 32.634C17.6213 32.338 17.768 31.9713 17.768 31.534C17.768 31.0967 17.6213 30.732 17.328 30.44C17.032 30.1467 16.6653 30 16.228 30C15.7907 30 15.4253 30.148 15.132 30.444C14.8387 30.7387 14.692 31.1047 14.692 31.542C14.692 31.978 14.84 32.3427 15.136 32.636C15.4307 32.9293 15.7967 33.076 16.234 33.076ZM16.234 25.538C16.67 25.538 17.0347 25.3907 17.328 25.096C17.6213 24.8 17.768 24.4333 17.768 23.996C17.768 23.5587 17.6213 23.194 17.328 22.902C17.032 22.6087 16.6653 22.462 16.228 22.462C15.7907 22.462 15.4253 22.6093 15.132 22.904C14.8387 23.2 14.692 23.5667 14.692 24.004C14.692 24.4413 14.84 24.806 15.136 25.098C15.4307 25.3913 15.7967 25.538 16.234 25.538ZM16.234 18C16.67 18 17.0347 17.852 17.328 17.556C17.6213 17.2613 17.768 16.8953 17.768 16.458C17.768 16.022 17.6213 15.6573 17.328 15.364C17.032 15.0707 16.6653 14.924 16.228 14.924C15.7907 14.924 15.4253 15.0713 15.132 15.366C14.8387 15.662 14.692 16.0287 14.692 16.466C14.692 16.9033 14.84 17.268 15.136 17.56C15.4307 17.8533 15.7967 18 16.234 18ZM22.384 32.54H33.154V30.54H22.384V32.54ZM22.384 25H33.154V23H22.384V25ZM22.384 17.46H33.154V15.46H22.384V17.46ZM11.23 40C10.31 40 9.542 39.692 8.926 39.076C8.30867 38.4587 8 37.69 8 36.77V11.23C8 10.31 8.30867 9.542 8.926 8.926C9.542 8.30867 10.31 8 11.23 8H36.77C37.69 8 38.458 8.30867 39.074 8.926C39.6913 9.542 40 10.31 40 11.23V36.77C40 37.69 39.692 38.458 39.076 39.074C38.4587 39.6913 37.69 40 36.77 40H11.23ZM11.23 38H36.77C37.0767 38 37.3587 37.872 37.616 37.616C37.872 37.3587 38 37.0767 38 36.77V11.23C38 10.9233 37.872 10.6413 37.616 10.384C37.3587 10.128 37.0767 10 36.77 10H11.23C10.9233 10 10.6413 10.128 10.384 10.384C10.128 10.6413 10 10.9233 10 11.23V36.77C10 37.0767 10.128 37.3587 10.384 37.616C10.6413 37.872 10.9233 38 11.23 38Z" fill="white"/>
</g>
</svg>
