<svg width="33" height="32" viewBox="0 0 33 32" fill="none" xmlns="http://www.w3.org/2000/svg">
<g id="clarity:search-line" clip-path="url(#clip0_160_12141)">
<path id="Vector" d="M15.0155 4.48873C16.941 4.48697 18.8237 5.05632 20.4255 6.12477C22.0273 7.19321 23.2762 8.71273 24.0143 10.4911C24.7523 12.2695 24.9464 14.2268 24.5718 16.1155C24.1972 18.0042 23.2709 19.7393 21.9101 21.1014C20.5492 22.4635 18.8149 23.3914 16.9266 23.7677C15.0382 24.144 13.0807 23.9518 11.3017 23.2153C9.52263 22.4789 8.00197 21.2314 6.93206 19.6305C5.86215 18.0297 5.29108 16.1475 5.29108 14.2221C5.30275 11.6458 6.33075 9.17816 8.15166 7.35559C9.97257 5.53301 12.4392 4.50275 15.0155 4.48873ZM15.0155 2.6665C12.73 2.6665 10.4959 3.34423 8.5956 4.61397C6.6953 5.88371 5.21419 7.68844 4.33958 9.79994C3.46497 11.9114 3.23613 14.2349 3.682 16.4764C4.12788 18.718 5.22844 20.777 6.84451 22.3931C8.46058 24.0091 10.5196 25.1097 12.7611 25.5556C15.0027 26.0015 17.3261 25.7726 19.4376 24.898C21.5491 24.0234 23.3539 22.5423 24.6236 20.642C25.8934 18.7417 26.5711 16.5075 26.5711 14.2221C26.5711 11.1573 25.3536 8.21813 23.1865 6.05105C21.0194 3.88396 18.0802 2.6665 15.0155 2.6665Z" fill="white"/>
<path id="Vector_2" d="M31.6112 29.5912L25.0601 22.9956L23.7979 24.2489L30.349 30.8445C30.4313 30.9274 30.5291 30.9932 30.6368 31.0383C30.7446 31.0834 30.8601 31.1068 30.9769 31.1072C31.0937 31.1076 31.2095 31.085 31.3175 31.0407C31.4256 30.9964 31.5239 30.9312 31.6067 30.8489C31.6896 30.7666 31.7555 30.6688 31.8006 30.5611C31.8456 30.4533 31.869 30.3378 31.8695 30.221C31.8699 30.1042 31.8473 29.9884 31.803 29.8804C31.7586 29.7723 31.6935 29.674 31.6112 29.5912Z" fill="white"/>
</g>
<defs>
<clipPath id="clip0_160_12141">
<rect width="32" height="32" fill="white" transform="translate(0.5)"/>
</clipPath>
</defs>
</svg>
