<svg width="32" height="32" viewBox="0 0 32 32" fill="none" xmlns="http://www.w3.org/2000/svg">
<g id="mdi:address-marker-outline">
<path id="Vector" d="M15.9998 8.6665C16.8839 8.6665 17.7317 9.01769 18.3569 9.64281C18.982 10.2679 19.3332 11.1158 19.3332 11.9998C19.3332 12.4376 19.247 12.871 19.0794 13.2754C18.9119 13.6799 18.6664 14.0473 18.3569 14.3569C18.0473 14.6664 17.6799 14.9119 17.2754 15.0794C16.871 15.247 16.4376 15.3332 15.9998 15.3332C15.1158 15.3332 14.2679 14.982 13.6428 14.3569C13.0177 13.7317 12.6665 12.8839 12.6665 11.9998C12.6665 11.1158 13.0177 10.2679 13.6428 9.64281C14.2679 9.01769 15.1158 8.6665 15.9998 8.6665ZM15.9998 2.6665C18.4752 2.6665 20.8492 3.64983 22.5995 5.40017C24.3498 7.15051 25.3332 9.52448 25.3332 11.9998C25.3332 18.9998 15.9998 29.3332 15.9998 29.3332C15.9998 29.3332 6.6665 18.9998 6.6665 11.9998C6.6665 9.52448 7.64983 7.15051 9.40017 5.40017C11.1505 3.64983 13.5245 2.6665 15.9998 2.6665ZM15.9998 5.33317C14.2317 5.33317 12.536 6.03555 11.2858 7.28579C10.0355 8.53603 9.33317 10.2317 9.33317 11.9998C9.33317 13.3332 9.33317 15.9998 15.9998 24.9465C22.6665 15.9998 22.6665 13.3332 22.6665 11.9998C22.6665 10.2317 21.9641 8.53603 20.7139 7.28579C19.4636 6.03555 17.7679 5.33317 15.9998 5.33317Z" fill="white"/>
</g>
</svg>
