<svg width="16" height="17" viewBox="0 0 16 17" fill="none" xmlns="http://www.w3.org/2000/svg">
<g id="ic:round-done">
<path id="Vector" d="M5.99971 11.2998L3.66638 8.96651C3.60536 8.90475 3.5327 8.85571 3.45259 8.82225C3.37248 8.78878 3.28653 8.77155 3.19971 8.77155C3.1129 8.77155 3.02694 8.78878 2.94684 8.82225C2.86673 8.85571 2.79406 8.90475 2.73305 8.96651C2.67129 9.02752 2.62225 9.10019 2.58879 9.1803C2.55532 9.26041 2.53809 9.34636 2.53809 9.43318C2.53809 9.51999 2.55532 9.60595 2.58879 9.68605C2.62225 9.76616 2.67129 9.83883 2.73305 9.89984L5.52638 12.6932C5.78638 12.9532 6.20638 12.9532 6.46638 12.6932L13.533 5.63318C13.5948 5.57216 13.6438 5.49949 13.6773 5.41939C13.7108 5.33928 13.728 5.25333 13.728 5.16651C13.728 5.07969 13.7108 4.99374 13.6773 4.91363C13.6438 4.83353 13.5948 4.76086 13.533 4.69984C13.472 4.63808 13.3994 4.58905 13.3193 4.55558C13.2391 4.52212 13.1532 4.50488 13.0664 4.50488C12.9796 4.50488 12.8936 4.52212 12.8135 4.55558C12.7334 4.58905 12.6607 4.63808 12.5997 4.69984L5.99971 11.2998Z" fill="#FFA800"/>
</g>
</svg>
