<svg width="18" height="18" viewBox="0 0 18 18" fill="none" xmlns="http://www.w3.org/2000/svg">
<g id="ic:round-close">
<path id="Vector" d="M13.7257 4.28267C13.6563 4.21314 13.5739 4.15798 13.4831 4.12034C13.3924 4.08271 13.2951 4.06333 13.1969 4.06333C13.0987 4.06333 13.0014 4.08271 12.9107 4.12034C12.82 4.15798 12.7375 4.21314 12.6682 4.28267L9.00066 7.94267L5.33316 4.27517C5.26372 4.20573 5.18129 4.15065 5.09056 4.11307C4.99984 4.07549 4.9026 4.05615 4.80441 4.05615C4.70621 4.05615 4.60897 4.07549 4.51825 4.11307C4.42753 4.15065 4.34509 4.20573 4.27566 4.27517C4.20622 4.3446 4.15114 4.42704 4.11356 4.51776C4.07598 4.60848 4.05664 4.70572 4.05664 4.80392C4.05664 4.90212 4.07598 4.99935 4.11356 5.09008C4.15114 5.1808 4.20622 5.26323 4.27566 5.33267L7.94316 9.00017L4.27566 12.6677C4.20622 12.7371 4.15114 12.8195 4.11356 12.9103C4.07598 13.001 4.05664 13.0982 4.05664 13.1964C4.05664 13.2946 4.07598 13.3919 4.11356 13.4826C4.15114 13.5733 4.20622 13.6557 4.27566 13.7252C4.34509 13.7946 4.42753 13.8497 4.51825 13.8873C4.60897 13.9248 4.70621 13.9442 4.80441 13.9442C4.9026 13.9442 4.99984 13.9248 5.09056 13.8873C5.18129 13.8497 5.26372 13.7946 5.33316 13.7252L9.00066 10.0577L12.6682 13.7252C12.7376 13.7946 12.82 13.8497 12.9107 13.8873C13.0015 13.9248 13.0987 13.9442 13.1969 13.9442C13.2951 13.9442 13.3923 13.9248 13.4831 13.8873C13.5738 13.8497 13.6562 13.7946 13.7257 13.7252C13.7951 13.6557 13.8502 13.5733 13.8878 13.4826C13.9253 13.3919 13.9447 13.2946 13.9447 13.1964C13.9447 13.0982 13.9253 13.001 13.8878 12.9103C13.8502 12.8195 13.7951 12.7371 13.7257 12.6677L10.0582 9.00017L13.7257 5.33267C14.0107 5.04767 14.0107 4.56767 13.7257 4.28267Z" fill="#444444"/>
</g>
</svg>
