<svg width="18" height="15" viewBox="0 0 18 15" fill="none" xmlns="http://www.w3.org/2000/svg">
<g id="Group">
<path id="Vector" d="M0 2.75941C0 2.13078 0.237053 1.5279 0.65901 1.08339C1.08097 0.638882 1.65326 0.38916 2.25 0.38916H15.75C16.3467 0.38916 16.919 0.638882 17.341 1.08339C17.7629 1.5279 18 2.13078 18 2.75941V12.2404C18 12.8691 17.7629 13.4719 17.341 13.9164C16.919 14.361 16.3467 14.6107 15.75 14.6107H2.25C1.65326 14.6107 1.08097 14.361 0.65901 13.9164C0.237053 13.4719 0 12.8691 0 12.2404V2.75941ZM2.25 1.57429C1.95163 1.57429 1.66548 1.69915 1.4545 1.9214C1.24353 2.14366 1.125 2.4451 1.125 2.75941V3.94454H16.875V2.75941C16.875 2.4451 16.7565 2.14366 16.5455 1.9214C16.3345 1.69915 16.0484 1.57429 15.75 1.57429H2.25ZM16.875 6.31479H1.125V12.2404C1.125 12.5547 1.24353 12.8562 1.4545 13.0784C1.66548 13.3007 1.95163 13.4256 2.25 13.4256H15.75C16.0484 13.4256 16.3345 13.3007 16.5455 13.0784C16.7565 12.8562 16.875 12.5547 16.875 12.2404V6.31479Z" fill="black"/>
<path id="Vector_2" d="M2.25 9.87019C2.25 9.55587 2.36853 9.25443 2.5795 9.03217C2.79048 8.80992 3.07663 8.68506 3.375 8.68506H4.5C4.79837 8.68506 5.08452 8.80992 5.2955 9.03217C5.50647 9.25443 5.625 9.55587 5.625 9.87019V11.0553C5.625 11.3696 5.50647 11.6711 5.2955 11.8933C5.08452 12.1156 4.79837 12.2404 4.5 12.2404H3.375C3.07663 12.2404 2.79048 12.1156 2.5795 11.8933C2.36853 11.6711 2.25 11.3696 2.25 11.0553V9.87019Z" fill="black"/>
</g>
</svg>
