<svg width="18" height="19" viewBox="0 0 18 19" fill="none" xmlns="http://www.w3.org/2000/svg">
<g id="carbon:delivery">
<path id="Vector" d="M2.25 9.49993H9V10.6851H2.25V9.49993ZM1.125 6.53711H6.75V7.72224H1.125V6.53711Z" fill="black"/>
<path id="Vector_2" d="M16.8301 9.85894L15.1426 5.711C15.0992 5.60439 15.0272 5.51352 14.9353 5.44968C14.8434 5.38584 14.7357 5.35184 14.6256 5.35191H12.9381V4.16678C12.9381 4.00962 12.8789 3.8589 12.7734 3.74778C12.6679 3.63665 12.5248 3.57422 12.3756 3.57422H3.37562V4.75935H11.8131V12.1996C11.5568 12.3564 11.3325 12.5651 11.1531 12.8136C10.9737 13.0622 10.8428 13.3457 10.768 13.6478H7.23324C7.09633 13.0892 6.77074 12.6024 6.31749 12.2786C5.86424 11.9548 5.31445 11.8163 4.77118 11.889C4.22791 11.9617 3.72845 12.2406 3.36643 12.6735C3.00442 13.1064 2.80469 13.6635 2.80469 14.2404C2.80469 14.8173 3.00442 15.3744 3.36643 15.8072C3.72845 16.2401 4.22791 16.519 4.77118 16.5917C5.31445 16.6644 5.86424 16.5259 6.31749 16.2021C6.77074 15.8783 7.09633 15.3915 7.23324 14.8329H10.768C10.8904 15.3415 11.1702 15.7925 11.5632 16.1147C11.9563 16.4369 12.4401 16.6119 12.9381 16.6119C13.4361 16.6119 13.9199 16.4369 14.313 16.1147C14.706 15.7925 14.9859 15.3415 15.1082 14.8329H16.3131C16.4623 14.8329 16.6054 14.7705 16.7109 14.6594C16.8164 14.5482 16.8756 14.3975 16.8756 14.2404V10.0924C16.8756 10.0121 16.8601 9.9327 16.8301 9.85894ZM5.06312 15.4255C4.84061 15.4255 4.6231 15.356 4.4381 15.2258C4.25309 15.0955 4.1089 14.9104 4.02375 14.6939C3.9386 14.4773 3.91632 14.239 3.95973 14.0091C4.00314 13.7793 4.11029 13.5681 4.26762 13.4023C4.42495 13.2366 4.62541 13.1237 4.84364 13.078C5.06187 13.0323 5.28807 13.0557 5.49363 13.1454C5.6992 13.2351 5.8749 13.387 5.99852 13.5819C6.12214 13.7768 6.18812 14.006 6.18812 14.2404C6.18782 14.5546 6.0692 14.8558 5.85828 15.078C5.64737 15.3002 5.36139 15.4252 5.06312 15.4255ZM12.9381 6.53703H14.2544L15.4604 9.49985H12.9381V6.53703ZM12.9381 15.4255C12.7156 15.4255 12.4981 15.356 12.3131 15.2258C12.1281 15.0955 11.9839 14.9104 11.8988 14.6939C11.8136 14.4773 11.7913 14.239 11.8347 14.0091C11.8781 13.7793 11.9853 13.5681 12.1426 13.4023C12.3 13.2366 12.5004 13.1237 12.7186 13.078C12.9369 13.0323 13.1631 13.0557 13.3686 13.1454C13.5742 13.2351 13.7499 13.387 13.8735 13.5819C13.9971 13.7768 14.0631 14.006 14.0631 14.2404C14.0628 14.5546 13.9442 14.8558 13.7333 15.078C13.5224 15.3002 13.2364 15.4252 12.9381 15.4255ZM15.7506 13.6478H15.1082C14.9843 13.1402 14.704 12.6903 14.3113 12.3686C13.9186 12.0469 13.4356 11.8716 12.9381 11.8701V10.685H15.7506V13.6478Z" fill="black"/>
</g>
</svg>
