<svg width="24" height="25" viewBox="0 0 24 25" fill="none" xmlns="http://www.w3.org/2000/svg">
<g id="Group">
<path id="Vector" d="M13 3.37988C13.2549 3.38017 13.5 3.47776 13.6854 3.65273C13.8707 3.8277 13.9822 4.06684 13.9972 4.32128C14.0121 4.57572 13.9293 4.82626 13.7657 5.02172C13.6021 5.21717 13.3701 5.34278 13.117 5.37288L13 5.37988H5V19.3799H19V11.3799C19.0003 11.125 19.0979 10.8799 19.2728 10.6945C19.4478 10.5092 19.687 10.3976 19.9414 10.3827C20.1958 10.3678 20.4464 10.4506 20.6418 10.6141C20.8373 10.7777 20.9629 11.0098 20.993 11.2629L21 11.3799V19.3799C21.0002 19.8845 20.8096 20.3704 20.4665 20.7404C20.1234 21.1104 19.6532 21.337 19.15 21.3749L19 21.3799H5C4.49542 21.38 4.00943 21.1895 3.63945 20.8464C3.26947 20.5033 3.04284 20.033 3.005 19.5299L3 19.3799V5.37988C2.99984 4.87531 3.19041 4.38932 3.5335 4.01933C3.87659 3.64935 4.34684 3.42273 4.85 3.38488L5 3.37988H13ZM19.243 3.72288C19.423 3.54353 19.6644 3.43941 19.9184 3.43165C20.1723 3.4239 20.4197 3.5131 20.6103 3.68113C20.8008 3.84917 20.9203 4.08343 20.9444 4.33636C20.9685 4.58928 20.8954 4.84189 20.74 5.04288L20.657 5.13788L10.757 15.0369C10.577 15.2162 10.3356 15.3204 10.0816 15.3281C9.82767 15.3359 9.58029 15.2467 9.38972 15.0786C9.19916 14.9106 9.07969 14.6763 9.0556 14.4234C9.03151 14.1705 9.10459 13.9179 9.26 13.7169L9.343 13.6229L19.243 3.72288Z" fill="black"/>
</g>
</svg>
