<svg width="16" height="12" viewBox="0 0 16 12" fill="none" xmlns="http://www.w3.org/2000/svg">
<g id="Group">
<path id="Vector" d="M0.875 7.5C0.775544 7.5 0.680161 7.53951 0.609835 7.60983C0.539509 7.68016 0.5 7.77554 0.5 7.875C0.5 7.97446 0.539509 8.06984 0.609835 8.14017C0.680161 8.21049 0.775544 8.25 0.875 8.25H2C2 9.04565 2.31607 9.80871 2.87868 10.3713C3.44129 10.9339 4.20435 11.25 5 11.25H11C11.7956 11.25 12.5587 10.9339 13.1213 10.3713C13.6839 9.80871 14 9.04565 14 8.25H15.125C15.2245 8.25 15.3198 8.21049 15.3902 8.14017C15.4605 8.06984 15.5 7.97446 15.5 7.875C15.5 7.77554 15.4605 7.68016 15.3902 7.60983C15.3198 7.53951 15.2245 7.5 15.125 7.5H0.875Z" fill="#FFA700"/>
<path id="Vector_2" fill-rule="evenodd" clip-rule="evenodd" d="M7.66356 0.77002L7.99918 0.93727L8.33481 1.10489L8.33406 1.10602L8.32956 1.11539L8.31081 1.15664C8.2106 1.38038 8.13516 1.61439 8.08581 1.85452C7.99731 2.29664 8.02993 2.68777 8.26431 2.92214C8.77993 3.43777 8.74731 4.17164 8.64831 4.66702C8.58373 4.98256 8.48228 5.28942 8.34606 5.58127L8.33856 5.59739L8.33593 5.60227L8.33518 5.60415L8.33481 5.60452L7.99918 5.43727L7.66356 5.26964L7.66431 5.26852L7.66881 5.25914L7.68756 5.2179C7.78776 4.99416 7.8632 4.76015 7.91256 4.52002C8.00106 4.0779 7.96843 3.68677 7.73406 3.45239C7.21843 2.93677 7.25106 2.20289 7.35006 1.70752C7.41463 1.39198 7.51608 1.08512 7.65231 0.79327L7.65981 0.777145L7.66243 0.77227L7.66318 0.770769L7.66356 0.77002ZM4.68793 1.66514L4.99918 1.87514C5.31006 2.08477 5.31043 2.08439 5.31043 2.08439L5.30556 2.09189C5.27264 2.14438 5.24187 2.19817 5.21331 2.25314C5.14241 2.38772 5.08585 2.52937 5.04456 2.67577C4.95456 3.01027 4.98681 3.27427 5.22231 3.44827C5.83056 3.89902 5.79831 4.57289 5.67756 5.01952C5.62236 5.21799 5.54632 5.41006 5.45068 5.59252C5.40886 5.6729 5.36344 5.75136 5.31456 5.82765L5.31156 5.83214L5.31081 5.83364L5.31043 5.83402C5.31043 5.83402 5.31006 5.83477 4.99918 5.62477C4.68831 5.41477 4.68793 5.41514 4.68793 5.41514L4.69281 5.40802L4.71306 5.37577C4.73829 5.33347 4.7623 5.29045 4.78506 5.24677C4.84318 5.13502 4.90993 4.98502 4.95381 4.82377C5.04381 4.48927 5.01156 4.22565 4.77606 4.05127C4.16781 3.60052 4.20006 2.92702 4.32081 2.48002C4.38268 2.25052 4.47418 2.04877 4.54768 1.90702C4.58954 1.82678 4.63496 1.74845 4.68381 1.67227L4.68643 1.66777L4.68756 1.66589L4.68793 1.66514ZM11.0629 1.66514L11.3742 1.87514C11.6851 2.08477 11.6854 2.08439 11.6854 2.08439L11.6806 2.09189C11.6476 2.14438 11.6169 2.19817 11.5883 2.25314C11.5174 2.38772 11.4608 2.52937 11.4196 2.67577C11.3296 3.01027 11.3618 3.27427 11.5973 3.44827C12.2056 3.89902 12.1733 4.57289 12.0526 5.01952C11.9974 5.21799 11.9213 5.41006 11.8257 5.59252C11.784 5.67289 11.7387 5.75135 11.6899 5.82765L11.6869 5.83214L11.6858 5.83364L11.6854 5.83402C11.6854 5.83402 11.6851 5.83477 11.3742 5.62477C11.0633 5.41477 11.0629 5.41514 11.0629 5.41514L11.0678 5.40802L11.0881 5.37577C11.1133 5.33347 11.1373 5.29045 11.1601 5.24677C11.2182 5.13502 11.2849 4.98502 11.3288 4.82377C11.4188 4.48927 11.3866 4.22565 11.1511 4.05127C10.5428 3.60052 10.5751 2.92702 10.6958 2.48002C10.7577 2.25052 10.8492 2.04877 10.9227 1.90702C10.9644 1.82679 11.0097 1.74846 11.0584 1.67227L11.0614 1.66777L11.0626 1.66589L11.0629 1.66514Z" fill="#FFA700"/>
</g>
</svg>
