<svg width="18" height="19" viewBox="0 0 18 19" fill="none" xmlns="http://www.w3.org/2000/svg">
<g id="mdi:address-marker-outline">
<path id="Vector" d="M9 5.1545C9.49728 5.1545 9.97419 5.3626 10.3258 5.73303C10.6775 6.10345 10.875 6.60585 10.875 7.12971C10.875 7.3891 10.8265 7.64595 10.7323 7.88559C10.638 8.12524 10.4999 8.34298 10.3258 8.5264C10.1517 8.70981 9.94502 8.8553 9.71753 8.95457C9.49005 9.05383 9.24623 9.10492 9 9.10492C8.50272 9.10492 8.02581 8.89682 7.67417 8.5264C7.32254 8.15597 7.125 7.65357 7.125 7.12971C7.125 6.60585 7.32254 6.10345 7.67417 5.73303C8.02581 5.3626 8.50272 5.1545 9 5.1545ZM9 1.59912C10.3924 1.59912 11.7277 2.18181 12.7123 3.21899C13.6969 4.25618 14.25 5.66291 14.25 7.12971C14.25 11.2777 9 17.4008 9 17.4008C9 17.4008 3.75 11.2777 3.75 7.12971C3.75 5.66291 4.30312 4.25618 5.28769 3.21899C6.27226 2.18181 7.60761 1.59912 9 1.59912ZM9 3.17929C8.00544 3.17929 7.05161 3.59549 6.34835 4.33634C5.64509 5.07719 5.25 6.08199 5.25 7.12971C5.25 7.9198 5.25 9.49996 9 14.8014C12.75 9.49996 12.75 7.9198 12.75 7.12971C12.75 6.08199 12.3549 5.07719 11.6517 4.33634C10.9484 3.59549 9.99456 3.17929 9 3.17929Z" fill="#939393"/>
</g>
</svg>
