<svg width="300" height="52" viewBox="0 0 300 52" fill="none" xmlns="http://www.w3.org/2000/svg">
<path d="M56.4625 27.4563H52.5022V35.3347H48.9492V14.8873H56.1395C58.4988 14.8873 60.3198 15.4163 61.6024 16.4742C62.885 17.5322 63.5264 19.0629 63.5264 21.0664C63.5264 22.4333 63.194 23.5802 62.5293 24.5071C61.8739 25.4247 60.9564 26.1315 59.7768 26.6277L64.369 35.1521V35.3347H60.5632L56.4625 27.4563ZM52.5022 24.6055H56.1535C57.3519 24.6055 58.2881 24.3058 58.9623 23.7066C59.6364 23.098 59.9734 22.2695 59.9734 21.2209C59.9734 20.1255 59.6598 19.2782 59.0325 18.679C58.4146 18.0799 57.4877 17.7709 56.2518 17.7522H52.5022V24.6055ZM82.1408 14.8873V28.5516C82.1408 30.7237 81.4433 32.4464 80.0483 33.7197C78.6626 34.9836 76.8136 35.6155 74.5011 35.6155C72.1605 35.6155 70.3021 34.9929 68.9259 33.7477C67.5496 32.4932 66.8615 30.7565 66.8615 28.5376V14.8873H70.4004V28.5657C70.4004 29.9326 70.7468 30.9765 71.4396 31.6974C72.1324 32.4183 73.1529 32.7787 74.5011 32.7787C77.2349 32.7787 78.6018 31.3369 78.6018 28.4534V14.8873H82.1408ZM96.9217 30.0683C96.9217 29.1696 96.6028 28.4768 95.966 27.9899C95.339 27.5031 94.2017 27.0115 92.5541 26.5154C90.9057 26.0191 89.595 25.4667 88.6212 24.8582C86.7583 23.6879 85.8273 22.1618 85.8273 20.28C85.8273 18.6323 86.4962 17.2747 87.8348 16.2074C89.1833 15.1401 90.9295 14.6064 93.0734 14.6064C94.4967 14.6064 95.7647 14.8686 96.879 15.3929C97.9932 15.9171 98.8684 16.6662 99.5053 17.6398C100.142 18.6042 100.46 19.6761 100.46 20.8558H96.9217C96.9217 19.7885 96.584 18.9552 95.9101 18.3561C95.2453 17.7475 94.2905 17.4432 93.0455 17.4432C91.8844 17.4432 90.9813 17.6914 90.3346 18.1875C89.6985 18.6837 89.3797 19.3765 89.3797 20.266C89.3797 21.015 89.7265 21.6422 90.4192 22.1478C91.1119 22.644 92.2542 23.1308 93.8459 23.6083C95.4376 24.0764 96.7154 24.6148 97.6793 25.2233C98.6441 25.8225 99.3508 26.5154 99.8003 27.3018C100.25 28.0788 100.474 28.9917 100.474 30.0402C100.474 31.7442 99.8192 33.1017 98.5085 34.1129C97.2068 35.1147 95.4376 35.6155 93.2 35.6155C91.7209 35.6155 90.3584 35.344 89.1135 34.801C87.8775 34.2486 86.9128 33.4903 86.2201 32.5259C85.5364 31.5616 85.1954 30.4381 85.1954 29.1555H88.7478C88.7478 30.3164 89.1315 31.2152 89.8999 31.8519C90.6674 32.4885 91.7677 32.8068 93.2 32.8068C94.4359 32.8068 95.3628 32.5587 95.9808 32.0626C96.6078 31.5569 96.9217 30.8922 96.9217 30.0683Z" fill="#FFB800"/>
<path d="M112.068 31.2063C112.068 30.5977 111.815 30.1343 111.31 29.816C110.813 29.4977 109.985 29.2168 108.824 28.9734C107.663 28.73 106.694 28.421 105.916 28.0465C104.213 27.2227 103.361 26.0289 103.361 24.4655C103.361 23.1547 103.913 22.0593 105.017 21.1792C106.123 20.2992 107.527 19.8592 109.231 19.8592C111.047 19.8592 112.513 20.3086 113.627 21.2073C114.75 22.1061 115.311 23.2717 115.311 24.7042H111.899C111.899 24.0488 111.656 23.5058 111.169 23.0751C110.682 22.6351 110.036 22.415 109.231 22.415C108.482 22.415 107.869 22.5883 107.392 22.9347C106.923 23.2811 106.689 23.7445 106.689 24.325C106.689 24.8493 106.909 25.2565 107.349 25.5468C107.789 25.837 108.678 26.132 110.017 26.4315C111.356 26.7217 112.405 27.0729 113.163 27.4848C113.931 27.8874 114.497 28.3742 114.862 28.9453C115.237 29.5164 115.424 30.2092 115.424 31.0237C115.424 32.3906 114.858 33.5001 113.725 34.352C112.592 35.1947 111.108 35.616 109.273 35.616C108.028 35.616 106.918 35.3913 105.944 34.9419C104.971 34.4925 104.213 33.8746 103.67 33.0881C103.127 32.3017 102.855 31.4544 102.855 30.5463H106.17C106.216 31.3514 106.52 31.974 107.083 32.414C107.644 32.8447 108.388 33.06 109.315 33.06C110.214 33.06 110.897 32.8916 111.365 32.5545C111.834 32.2081 112.068 31.7587 112.068 31.2063ZM122.326 35.3351H118.914V20.14H122.326V35.3351ZM118.703 16.1938C118.703 15.6695 118.867 15.2341 119.194 14.8878C119.531 14.5413 120.009 14.3682 120.627 14.3682C121.244 14.3682 121.723 14.5413 122.06 14.8878C122.397 15.2341 122.565 15.6695 122.565 16.1938C122.565 16.7087 122.397 17.1394 122.06 17.4858C121.723 17.8229 121.244 17.9913 120.627 17.9913C120.009 17.9913 119.531 17.8229 119.194 17.4858C118.867 17.1394 118.703 16.7087 118.703 16.1938ZM135.421 35.3351C135.272 35.0449 135.141 34.5721 135.028 33.9167C133.942 35.0495 132.613 35.616 131.04 35.616C129.514 35.616 128.269 35.1806 127.304 34.3099C126.34 33.4392 125.858 32.3625 125.858 31.0799C125.858 29.4602 126.457 28.2197 127.656 27.3584C128.863 26.4877 130.586 26.0523 132.824 26.0523H134.916V25.0552C134.916 24.2688 134.696 23.6416 134.256 23.1734C133.816 22.6959 133.147 22.4572 132.248 22.4572C131.47 22.4572 130.834 22.6538 130.338 23.047C129.842 23.4309 129.593 23.9224 129.593 24.5216H126.181C126.181 23.6883 126.457 22.9113 127.009 22.1904C127.562 21.4601 128.311 20.889 129.257 20.477C130.211 20.0651 131.274 19.8592 132.444 19.8592C134.223 19.8592 135.641 20.3086 136.699 21.2073C137.757 22.0968 138.301 23.3513 138.329 24.971V31.8242C138.329 33.1912 138.52 34.2819 138.905 35.0964V35.3351H135.421ZM131.672 32.8775C132.346 32.8775 132.978 32.7136 133.567 32.3859C134.167 32.0583 134.616 31.6183 134.916 31.0659V28.201H133.076C131.812 28.201 130.862 28.421 130.225 28.8611C129.589 29.3011 129.27 29.9237 129.27 30.7288C129.27 31.3842 129.486 31.9085 129.916 32.3017C130.357 32.6855 130.942 32.8775 131.672 32.8775ZM145.357 20.14L145.456 21.8954C146.579 20.5379 148.053 19.8592 149.879 19.8592C153.044 19.8592 154.653 21.6708 154.71 25.294V35.3351H151.297V25.4906C151.297 24.5263 151.087 23.8147 150.665 23.356C150.254 22.8879 149.575 22.6538 148.629 22.6538C147.253 22.6538 146.228 23.2764 145.553 24.5216V35.3351H142.141V20.14H145.357ZM166.33 27.4567H162.37V35.3351H158.817V14.8878H166.007C168.367 14.8878 170.188 15.4167 171.47 16.4746C172.753 17.5326 173.395 19.0634 173.395 21.0669C173.395 22.4338 173.062 23.5807 172.397 24.5075C171.742 25.4251 170.825 26.132 169.645 26.6281L174.237 35.1525V35.3351H170.432L166.33 27.4567ZM162.37 24.6059H166.021C167.22 24.6059 168.156 24.3063 168.83 23.7071C169.505 23.0985 169.842 22.2699 169.842 21.2214C169.842 20.126 169.528 19.2787 168.901 18.6795C168.283 18.0803 167.356 17.7713 166.12 17.7526H162.37V24.6059ZM183.415 35.616C181.252 35.616 179.496 34.9372 178.148 33.5797C176.809 32.2128 176.14 30.3965 176.14 28.1308V27.7095C176.14 26.1928 176.43 24.8399 177.011 23.6509C177.601 22.4525 178.424 21.521 179.482 20.8563C180.54 20.1915 181.72 19.8592 183.021 19.8592C185.09 19.8592 186.687 20.5192 187.81 21.8393C188.943 23.1594 189.509 25.0272 189.509 27.4426V28.8189H179.58C179.684 30.0735 180.1 31.0659 180.83 31.7962C181.57 32.5264 182.497 32.8916 183.611 32.8916C185.175 32.8916 186.448 32.2595 187.431 30.9956L189.27 32.7511C188.662 33.6592 187.848 34.3661 186.827 34.8716C185.816 35.3679 184.678 35.616 183.415 35.616ZM183.007 22.5976C182.071 22.5976 181.312 22.9253 180.732 23.5807C180.161 24.236 179.796 25.1489 179.637 26.3191H186.139V26.0664C186.064 24.9241 185.76 24.0629 185.226 23.4824C184.692 22.8925 183.953 22.5976 183.007 22.5976ZM200.975 31.2063C200.975 30.5977 200.723 30.1343 200.217 29.816C199.721 29.4977 198.892 29.2168 197.732 28.9734C196.571 28.73 195.602 28.421 194.824 28.0465C193.12 27.2227 192.269 26.0289 192.269 24.4655C192.269 23.1547 192.821 22.0593 193.925 21.1792C195.031 20.2992 196.435 19.8592 198.139 19.8592C199.955 19.8592 201.42 20.3086 202.534 21.2073C203.657 22.1061 204.219 23.2717 204.219 24.7042H200.807C200.807 24.0488 200.564 23.5058 200.077 23.0751C199.59 22.6351 198.944 22.415 198.139 22.415C197.39 22.415 196.776 22.5883 196.299 22.9347C195.831 23.2811 195.597 23.7445 195.597 24.325C195.597 24.8493 195.817 25.2565 196.257 25.5468C196.697 25.837 197.586 26.132 198.925 26.4315C200.264 26.7217 201.312 27.0729 202.071 27.4848C202.839 27.8874 203.405 28.3742 203.77 28.9453C204.145 29.5164 204.332 30.2092 204.332 31.0237C204.332 32.3906 203.766 33.5001 202.633 34.352C201.499 35.1947 200.016 35.616 198.18 35.616C196.936 35.616 195.826 35.3913 194.852 34.9419C193.879 34.4925 193.12 33.8746 192.578 33.0881C192.035 32.3017 191.763 31.4544 191.763 30.5463H195.078C195.124 31.3514 195.428 31.974 195.99 32.414C196.552 32.8447 197.296 33.06 198.223 33.06C199.121 33.06 199.805 32.8916 200.273 32.5545C200.741 32.2081 200.975 31.7587 200.975 31.2063ZM211.88 16.4466V20.14H214.562V22.6679H211.88V31.1501C211.88 31.7306 211.992 32.1519 212.217 32.414C212.451 32.6668 212.863 32.7932 213.453 32.7932C213.846 32.7932 214.244 32.7464 214.647 32.6528V35.2929C213.869 35.5083 213.121 35.616 212.4 35.616C209.778 35.616 208.467 34.1695 208.467 31.2765V22.6679H205.967V20.14H208.467V16.4466H211.88ZM226.548 35.3351C226.398 35.0449 226.267 34.5721 226.155 33.9167C225.069 35.0495 223.739 35.616 222.166 35.616C220.64 35.616 219.395 35.1806 218.431 34.3099C217.467 33.4392 216.984 32.3625 216.984 31.0799C216.984 29.4602 217.584 28.2197 218.782 27.3584C219.99 26.4877 221.713 26.0523 223.95 26.0523H226.043V25.0552C226.043 24.2688 225.822 23.6416 225.383 23.1734C224.942 22.6959 224.273 22.4572 223.374 22.4572C222.597 22.4572 221.961 22.6538 221.465 23.047C220.968 23.4309 220.72 23.9224 220.72 24.5216H217.307C217.307 23.6883 217.584 22.9113 218.136 22.1904C218.689 21.4601 219.437 20.889 220.383 20.477C221.338 20.0651 222.401 19.8592 223.571 19.8592C225.35 19.8592 226.768 20.3086 227.826 21.2073C228.884 22.0968 229.427 23.3513 229.455 24.971V31.8242C229.455 33.1912 229.647 34.2819 230.031 35.0964V35.3351H226.548ZM222.798 32.8775C223.473 32.8775 224.105 32.7136 224.694 32.3859C225.294 32.0583 225.743 31.6183 226.043 31.0659V28.201H224.203C222.939 28.201 221.989 28.421 221.352 28.8611C220.715 29.3011 220.397 29.9237 220.397 30.7288C220.397 31.3842 220.613 31.9085 221.043 32.3017C221.484 32.6855 222.069 32.8775 222.798 32.8775ZM242.523 33.8465C241.521 35.0261 240.098 35.616 238.253 35.616C236.605 35.616 235.355 35.1338 234.503 34.1695C233.661 33.2051 233.239 31.8101 233.239 29.9845V20.14H236.652V29.9424C236.652 31.871 237.453 32.8353 239.053 32.8353C240.711 32.8353 241.829 32.2408 242.41 31.0518V20.14H245.823V35.3351H242.607L242.523 33.8465ZM257.542 23.2576C257.092 23.1828 256.629 23.1453 256.151 23.1453C254.588 23.1453 253.535 23.7445 252.992 24.9429V35.3351H249.579V20.14H252.837L252.921 21.8393C253.745 20.5192 254.888 19.8592 256.348 19.8592C256.835 19.8592 257.238 19.9246 257.556 20.0557L257.542 23.2576ZM268.643 35.3351C268.493 35.0449 268.362 34.5721 268.25 33.9167C267.164 35.0495 265.834 35.616 264.261 35.616C262.735 35.616 261.49 35.1806 260.526 34.3099C259.562 33.4392 259.079 32.3625 259.079 31.0799C259.079 29.4602 259.678 28.2197 260.876 27.3584C262.084 26.4877 263.807 26.0523 266.044 26.0523H268.137V25.0552C268.137 24.2688 267.917 23.6416 267.477 23.1734C267.037 22.6959 266.367 22.4572 265.469 22.4572C264.692 22.4572 264.055 22.6538 263.559 23.047C263.063 23.4309 262.815 23.9224 262.815 24.5216H259.402C259.402 23.6883 259.678 22.9113 260.231 22.1904C260.783 21.4601 261.532 20.889 262.478 20.477C263.433 20.0651 264.495 19.8592 265.666 19.8592C267.445 19.8592 268.863 20.3086 269.921 21.2073C270.979 22.0968 271.521 23.3513 271.55 24.971V31.8242C271.55 33.1912 271.742 34.2819 272.125 35.0964V35.3351H268.643ZM264.893 32.8775C265.567 32.8775 266.199 32.7136 266.789 32.3859C267.388 32.0583 267.837 31.6183 268.137 31.0659V28.201H266.297C265.034 28.201 264.084 28.421 263.447 28.8611C262.81 29.3011 262.492 29.9237 262.492 30.7288C262.492 31.3842 262.707 31.9085 263.138 32.3017C263.577 32.6855 264.163 32.8775 264.893 32.8775ZM278.578 20.14L278.676 21.8954C279.8 20.5379 281.275 19.8592 283.101 19.8592C286.265 19.8592 287.875 21.6708 287.932 25.294V35.3351H284.519V25.4906C284.519 24.5263 284.308 23.8147 283.887 23.356C283.474 22.8879 282.796 22.6538 281.851 22.6538C280.474 22.6538 279.449 23.2764 278.775 24.5216V35.3351H275.362V20.14H278.578ZM295.985 16.4466V20.14H298.667V22.6679H295.985V31.1501C295.985 31.7306 296.097 32.1519 296.322 32.414C296.556 32.6668 296.968 32.7932 297.558 32.7932C297.951 32.7932 298.349 32.7464 298.752 32.6528V35.2929C297.974 35.5083 297.226 35.616 296.505 35.616C293.883 35.616 292.572 34.1695 292.572 31.2765V22.6679H290.072V20.14H292.572V16.4466H295.985Z" fill="#444444"/>
<path d="M36.9374 31.9022V17.427L37.1886 17.3348L37.5269 17.2118L37.8088 17.0836L38.0907 16.9453L38.3829 16.7812L38.6187 16.6377L38.9211 16.4276L39.1005 16.2892C39.2081 16.2072 39.3158 16.12 39.4183 16.0329L39.5362 15.9252C39.6541 15.8176 39.7668 15.7099 39.8745 15.5972C40.3946 15.0515 40.8221 14.4249 41.1406 13.7417L41.1713 13.6801C41.2379 13.5367 41.2943 13.3931 41.3507 13.2444L41.4071 13.0856C41.4532 12.9574 41.4942 12.8241 41.5301 12.6909C41.566 12.5576 41.5712 12.532 41.5916 12.45C41.6122 12.368 41.648 12.2193 41.6685 12.1014C41.689 11.9836 41.7044 11.8707 41.7197 11.7529C41.7352 11.635 41.7454 11.5683 41.7556 11.476C41.7556 11.2608 41.7864 11.0455 41.7864 10.8251C41.7883 9.85022 41.584 8.8859 41.1869 7.99556C40.7898 7.10518 40.2089 6.30883 39.4824 5.65876C38.7558 5.00871 37.9001 4.51963 36.9712 4.22363C36.0424 3.92762 35.0614 3.83139 34.0927 3.94124L33.862 3.98225C33.6775 4.013 33.493 4.03863 33.3135 4.07963C33.2213 4.07963 33.1341 4.13602 33.0419 4.16165C32.8727 4.20778 32.7036 4.25391 32.5293 4.31542C32.355 4.37693 32.355 4.39231 32.2679 4.42818C32.1807 4.46407 31.9654 4.55121 31.8169 4.62296C31.2155 3.55836 30.3417 2.67297 29.285 2.05773C28.2284 1.44249 27.0271 1.11955 25.8043 1.12209H25.7377C24.518 1.1214 23.3198 1.4441 22.2655 2.05729C21.2111 2.67048 20.3381 3.55223 19.7355 4.61271L19.6381 4.57171C19.4331 4.47432 19.228 4.38718 19.0178 4.3103L18.8744 4.26929C18.6744 4.20265 18.4745 4.14115 18.2644 4.08989C18.1721 4.08989 18.0798 4.05913 17.9824 4.03863C17.8851 4.01812 17.6544 3.97199 17.4698 3.95149C16.5029 3.84257 15.5238 3.93897 14.5966 4.23442C13.6693 4.52987 12.815 5.0177 12.0893 5.666C11.3635 6.31431 10.7829 7.1085 10.3852 7.99664C9.98743 8.88475 9.78166 9.84685 9.78125 10.82C9.78125 11.0455 9.78125 11.2659 9.81716 11.4812C9.81716 11.5427 9.81716 11.5991 9.81716 11.6606C9.81716 11.8246 9.85817 11.9836 9.8889 12.1424C9.8889 12.1989 9.8889 12.2552 9.92481 12.3116C9.96236 12.479 10.0051 12.6499 10.0529 12.8241L10.0888 12.9369C10.576 14.4103 11.548 15.6751 12.8464 16.5249C13.0071 16.6343 13.1779 16.7351 13.359 16.8273L13.4359 16.8735C13.5794 16.9504 13.7281 17.017 13.8767 17.0836C14.0942 17.1823 14.3165 17.2696 14.5431 17.345L14.9019 17.4476V31.9022C14.8968 34.5061 20.4428 35.8798 25.9171 35.8798C31.3914 35.8798 36.9374 34.5061 36.9374 31.9022ZM25.9171 34.342C19.7662 34.342 16.4344 32.7377 16.4344 31.9176V17.709H16.701C17.8607 17.7134 19.0029 17.4261 20.0225 16.8735C20.1145 16.8269 20.1961 16.7624 20.2626 16.6837C20.3292 16.605 20.3791 16.5136 20.4097 16.4151C20.4403 16.3167 20.4506 16.2132 20.4404 16.1106C20.4301 16.0081 20.3993 15.9086 20.3497 15.8182C20.3003 15.7278 20.233 15.6483 20.1522 15.5844C20.0714 15.5204 19.9785 15.4734 19.8791 15.4461C19.7797 15.4188 19.6759 15.4117 19.5737 15.4254C19.4715 15.439 19.3732 15.473 19.2844 15.5254C18.1216 16.1661 16.7615 16.3489 15.4709 16.038C15.0958 15.9472 14.7315 15.8166 14.3842 15.6485L14.1689 15.5459L14.0664 15.4844C13.9485 15.4178 13.8306 15.3512 13.7229 15.2742L13.6768 15.2435C13.5435 15.1512 13.4154 15.0589 13.2975 14.9565C12.6279 14.4062 12.1005 13.7031 11.7598 12.9061C11.6983 12.7576 11.6419 12.6089 11.5957 12.4551L11.565 12.3629C11.5291 12.2399 11.4933 12.1117 11.4676 11.9784L11.4369 11.8452C11.4369 11.7222 11.3959 11.5991 11.3805 11.4709C11.3805 11.4248 11.3805 11.3787 11.3805 11.3326C11.3805 11.1635 11.3549 10.9892 11.3549 10.82C11.3544 10.0521 11.5183 9.29308 11.8358 8.59385C12.1532 7.89467 12.6168 7.27158 13.1951 6.76652C13.7735 6.26145 14.4534 5.88613 15.189 5.66581C15.9245 5.44549 16.6988 5.38527 17.4596 5.48921C18.2322 5.60332 18.9704 5.88498 19.6227 6.31446H19.6586C19.753 6.37774 19.8603 6.4193 19.9727 6.43614C20.0851 6.45297 20.1999 6.44467 20.3087 6.41182C20.4175 6.37897 20.5178 6.32241 20.6021 6.24619C20.6864 6.16996 20.7528 6.076 20.7965 5.97104C21.1951 4.9846 21.8801 4.1402 22.7632 3.54667C23.6462 2.95315 24.6867 2.63771 25.7507 2.64102C26.8146 2.64432 27.8532 2.96623 28.7324 3.56524C29.6118 4.16425 30.2915 5.0129 30.684 6.00179C30.7274 6.1083 30.794 6.20372 30.8792 6.28105C30.9643 6.35837 31.0657 6.41561 31.1758 6.44856C31.286 6.48151 31.4022 6.48934 31.5158 6.47145C31.6293 6.45357 31.7375 6.41042 31.8322 6.34521L32.1193 6.16581L32.2217 6.15043L32.4986 6.00179L32.5754 5.96078L32.8523 5.83777L32.9445 5.79676L33.211 5.70449L33.3187 5.66862L33.5801 5.59685L33.7082 5.56098L33.9594 5.51484L34.0978 5.48921L34.3592 5.45846H34.4976H34.9025C36.3228 5.45978 37.685 6.02249 38.6922 7.02391C39.6995 8.02535 40.27 9.38429 40.2794 10.8046C40.2794 10.9738 40.2795 11.1429 40.2538 11.3172C40.2538 11.3889 40.2538 11.4607 40.2231 11.5325C40.1923 11.6042 40.2231 11.7119 40.1821 11.8042C40.1411 11.8964 40.1462 11.9836 40.1205 12.0758C40.0949 12.168 40.0898 12.2039 40.0692 12.2654C40.0488 12.327 40.0078 12.4704 39.9719 12.5679L39.9258 12.696C39.8848 12.8088 39.8386 12.9216 39.7874 13.0291L39.7618 13.0856C39.5139 13.6115 39.1834 14.0944 38.7827 14.5157C38.7007 14.6028 38.6135 14.6848 38.5264 14.7617L38.429 14.8488L38.1881 15.0436L38.0395 15.1564L37.8088 15.3152L37.6191 15.4281L37.3936 15.5562L37.1681 15.6638L36.9529 15.7612L36.6812 15.8893L36.4813 15.9611C35.7948 16.1707 35.0732 16.2406 34.3592 16.1667C33.6452 16.0927 32.9533 15.8764 32.3243 15.5305C32.2355 15.4781 32.1372 15.4441 32.035 15.4305C31.9328 15.4168 31.8289 15.4239 31.7296 15.4512C31.6302 15.4785 31.5373 15.5255 31.4564 15.5895C31.3756 15.6534 31.3084 15.7329 31.2589 15.8233C31.2094 15.9137 31.1786 16.0132 31.1683 16.1157C31.158 16.2183 31.1684 16.3219 31.199 16.4203C31.2295 16.5188 31.2795 16.6101 31.346 16.6888C31.4126 16.7675 31.4942 16.8321 31.5862 16.8786C32.5992 17.4295 33.734 17.7184 34.8872 17.7193C35.0563 17.7193 35.2203 17.7193 35.3998 17.7193V31.9022C35.3998 32.7274 32.0526 34.342 25.9171 34.342Z" fill="#444444"/>
<path d="M31.7343 9.58499C31.6404 9.54752 31.5401 9.52895 31.439 9.53035C31.3379 9.53166 31.2381 9.55294 31.1453 9.59296C31.0525 9.63298 30.9684 9.69083 30.898 9.76339C30.8276 9.83587 30.7721 9.92158 30.7348 10.0155C30.3383 11.0182 29.6495 11.8786 28.7579 12.4848C27.8662 13.0911 26.8129 13.4152 25.7346 13.4152C24.6564 13.4152 23.6031 13.0911 22.7114 12.4848C21.8197 11.8786 21.1309 11.0182 20.7345 10.0155C20.6562 9.83094 20.5089 9.68426 20.324 9.60669C20.1391 9.5292 19.9312 9.52698 19.7447 9.60044C19.5581 9.67399 19.4077 9.81755 19.3255 10.0004C19.2432 10.1832 19.2357 10.391 19.3044 10.5794C19.8143 11.8689 20.7 12.9753 21.8467 13.7549C22.9934 14.5346 24.348 14.9516 25.7346 14.9516C27.1213 14.9516 28.4759 14.5346 29.6225 13.7549C30.7693 12.9753 31.655 11.8689 32.1649 10.5794C32.2389 10.3903 32.2352 10.1797 32.1546 9.9934C32.0739 9.80711 31.9229 9.66026 31.7343 9.58499Z" fill="#444444"/>
<path d="M22.3496 40.9288C20.7145 40.9288 19.838 41.5439 18.7616 43.4661C17.5776 45.5523 16.332 46.6133 15.0556 46.6133C14.322 46.6119 13.6187 46.3199 13.0999 45.8011C12.5812 45.2823 12.2891 44.5791 12.2877 43.8454C12.2877 43.6415 12.2068 43.4459 12.0626 43.3017C11.9184 43.1576 11.7228 43.0765 11.5189 43.0765C11.315 43.0765 11.1195 43.1576 10.9752 43.3017C10.831 43.4459 10.75 43.6415 10.75 43.8454C10.7514 44.9869 11.2055 46.0813 12.0126 46.8885C12.8198 47.6956 13.9141 48.1497 15.0556 48.151C16.9266 48.151 18.6437 46.8286 20.0994 44.2247C21.0476 42.5435 21.5192 42.4666 22.3496 42.4666C22.5572 42.4527 22.7648 42.4925 22.9524 42.5823C23.1401 42.6722 23.3014 42.8088 23.4209 42.9792C23.4743 43.0673 23.545 43.1439 23.6287 43.2042C23.7124 43.2646 23.8073 43.3075 23.9079 43.3303C24.0085 43.3532 24.1127 43.3556 24.2142 43.3374C24.3157 43.3191 24.4126 43.2807 24.499 43.2243C24.5853 43.1678 24.6594 43.0946 24.7169 43.0089C24.7743 42.9233 24.814 42.8269 24.8334 42.7256C24.8529 42.6243 24.8517 42.5201 24.8301 42.4192C24.8084 42.3184 24.7668 42.2229 24.7074 42.1385C24.4479 41.7548 24.0958 41.4427 23.6837 41.2312C23.2715 41.0198 22.8127 40.9158 22.3496 40.9288Z" fill="#444444"/>
<path d="M39.8178 43.0565C39.6139 43.0565 39.4183 43.1375 39.2741 43.2817C39.1299 43.4259 39.049 43.6214 39.049 43.8254C39.0476 44.559 38.7555 45.2623 38.2367 45.781C37.718 46.2999 37.0147 46.5919 36.281 46.5933C35.0047 46.5933 33.7591 45.5322 32.5751 43.4461C31.4885 41.529 30.6119 40.9088 28.9871 40.9088C28.523 40.8989 28.0639 41.0065 27.6526 41.2215C27.2413 41.4366 26.891 41.7522 26.6343 42.139C26.5789 42.2235 26.5405 42.318 26.5215 42.4174C26.5025 42.5167 26.5033 42.6187 26.5237 42.7177C26.5442 42.8168 26.584 42.9107 26.6408 42.9943C26.6976 43.078 26.7703 43.1497 26.8548 43.2051C26.9393 43.2607 27.0339 43.299 27.1331 43.318C27.2324 43.337 27.3345 43.3362 27.4335 43.3157C27.5325 43.2953 27.6265 43.2555 27.7102 43.1987C27.7937 43.1419 27.8654 43.0692 27.9209 42.9847C28.0403 42.8144 28.2017 42.6777 28.3893 42.5879C28.577 42.4982 28.7846 42.4583 28.9922 42.4722C29.8226 42.4722 30.2992 42.549 31.2526 44.2252C32.7289 46.829 34.4255 48.1515 36.2964 48.1515C37.4379 48.1501 38.5322 47.696 39.3394 46.8889C40.1466 46.0817 40.6007 44.9874 40.602 43.8458C40.6048 43.7419 40.5864 43.6384 40.5481 43.5417C40.5098 43.445 40.4522 43.3571 40.3789 43.2834C40.3056 43.2095 40.218 43.1514 40.1216 43.1123C40.0251 43.0734 39.9218 43.0544 39.8178 43.0565Z" fill="#444444"/>
</svg>
