<svg width="300" height="52" viewBox="0 0 300 52" fill="none" xmlns="http://www.w3.org/2000/svg">
<path d="M56.4625 27.572H52.5022V35.4504H48.9492V15.003H56.1395C58.4988 15.003 60.3198 15.532 61.6024 16.5899C62.885 17.6479 63.5264 19.1787 63.5264 21.1822C63.5264 22.5491 63.194 23.696 62.5293 24.6228C61.8739 25.5404 60.9564 26.2472 59.7768 26.7434L64.369 35.2678V35.4504H60.5632L56.4625 27.572ZM52.5022 24.7212H56.1535C57.3519 24.7212 58.2881 24.4216 58.9623 23.8223C59.6364 23.2138 59.9734 22.3852 59.9734 21.3366C59.9734 20.2413 59.6598 19.394 59.0325 18.7947C58.4146 18.1956 57.4877 17.8866 56.2518 17.8679H52.5022V24.7212ZM82.1408 15.003V28.6674C82.1408 30.8394 81.4433 32.5621 80.0483 33.8354C78.6626 35.0993 76.8136 35.7313 74.5011 35.7313C72.1605 35.7313 70.3021 35.1086 68.9259 33.8634C67.5496 32.609 66.8615 30.8722 66.8615 28.6533V15.003H70.4004V28.6814C70.4004 30.0483 70.7468 31.0923 71.4396 31.8131C72.1324 32.534 73.1529 32.8944 74.5011 32.8944C77.2349 32.8944 78.6018 31.4527 78.6018 28.5691V15.003H82.1408ZM96.9217 30.1841C96.9217 29.2853 96.6028 28.5925 95.966 28.1056C95.339 27.6188 94.2017 27.1272 92.5541 26.6311C90.9057 26.1348 89.595 25.5824 88.6212 24.9739C86.7583 23.8036 85.8273 22.2775 85.8273 20.3957C85.8273 18.748 86.4962 17.3905 87.8348 16.3231C89.1833 15.2558 90.9295 14.7222 93.0734 14.7222C94.4967 14.7222 95.7647 14.9843 96.879 15.5086C97.9932 16.0329 98.8684 16.7819 99.5053 17.7556C100.142 18.7199 100.46 19.7918 100.46 20.9715H96.9217C96.9217 19.9042 96.584 19.0709 95.9101 18.4718C95.2453 17.8632 94.2905 17.5589 93.0455 17.5589C91.8844 17.5589 90.9813 17.8071 90.3346 18.3033C89.6985 18.7994 89.3797 19.4922 89.3797 20.3817C89.3797 21.1307 89.7265 21.758 90.4192 22.2635C91.1119 22.7597 92.2542 23.2466 93.8459 23.7241C95.4376 24.1921 96.7154 24.7305 97.6793 25.339C98.6441 25.9383 99.3508 26.6311 99.8003 27.4175C100.25 28.1945 100.474 29.1074 100.474 30.156C100.474 31.8599 99.8192 33.2175 98.5085 34.2286C97.2068 35.2304 95.4376 35.7313 93.2 35.7313C91.7209 35.7313 90.3584 35.4598 89.1135 34.9167C87.8775 34.3644 86.9128 33.606 86.2201 32.6417C85.5364 31.6773 85.1954 30.5538 85.1954 29.2713H88.7478C88.7478 30.4321 89.1315 31.331 89.8999 31.9676C90.6674 32.6043 91.7677 32.9225 93.2 32.9225C94.4359 32.9225 95.3628 32.6744 95.9808 32.1783C96.6078 31.6727 96.9217 31.0079 96.9217 30.1841Z" fill="#FFB800"/>
<path d="M112.067 31.3216C112.067 30.713 111.814 30.2496 111.309 29.9312C110.812 29.6129 109.984 29.332 108.823 29.0886C107.662 28.8452 106.693 28.5362 105.915 28.1618C104.212 27.3379 103.36 26.1441 103.36 24.5807C103.36 23.2699 103.912 22.1745 105.017 21.2944C106.122 20.4144 107.526 19.9744 109.23 19.9744C111.046 19.9744 112.512 20.4238 113.626 21.3225C114.749 22.2214 115.311 23.3869 115.311 24.8194H111.898C111.898 24.1641 111.655 23.6211 111.168 23.1904C110.681 22.7503 110.035 22.5303 109.23 22.5303C108.481 22.5303 107.868 22.7035 107.391 23.0499C106.922 23.3963 106.688 23.8598 106.688 24.4402C106.688 24.9645 106.908 25.3718 107.348 25.662C107.788 25.9523 108.677 26.2472 110.016 26.5467C111.355 26.837 112.404 27.1881 113.162 27.6C113.93 28.0026 114.496 28.4894 114.861 29.0605C115.236 29.6316 115.423 30.3244 115.423 31.139C115.423 32.5058 114.857 33.6153 113.724 34.4673C112.591 35.3099 111.107 35.7312 109.272 35.7312C108.027 35.7312 106.917 35.5065 105.943 35.0571C104.97 34.6077 104.212 33.9898 103.669 33.2033C103.126 32.4169 102.854 31.5696 102.854 30.6615H106.169C106.215 31.4667 106.519 32.0892 107.082 32.5293C107.643 32.9599 108.387 33.1752 109.314 33.1752C110.213 33.1752 110.896 33.0068 111.364 32.6697C111.833 32.3233 112.067 31.8739 112.067 31.3216ZM122.325 35.4503H118.913V20.2553H122.325V35.4503ZM118.702 16.309C118.702 15.7847 118.866 15.3494 119.193 15.003C119.53 14.6565 120.008 14.4834 120.626 14.4834C121.244 14.4834 121.722 14.6565 122.059 15.003C122.396 15.3494 122.564 15.7847 122.564 16.309C122.564 16.824 122.396 17.2547 122.059 17.601C121.722 17.9381 121.244 18.1066 120.626 18.1066C120.008 18.1066 119.53 17.9381 119.193 17.601C118.866 17.2547 118.702 16.824 118.702 16.309ZM135.42 35.4503C135.271 35.1601 135.14 34.6873 135.027 34.0319C133.941 35.1648 132.612 35.7312 131.039 35.7312C129.513 35.7312 128.268 35.2958 127.303 34.4251C126.339 33.5545 125.857 32.4777 125.857 31.1952C125.857 29.5754 126.456 28.3349 127.655 27.4736C128.862 26.6029 130.585 26.1676 132.823 26.1676H134.915V25.1705C134.915 24.384 134.695 23.7568 134.255 23.2887C133.815 22.8111 133.146 22.5724 132.247 22.5724C131.469 22.5724 130.833 22.7691 130.337 23.1623C129.841 23.5461 129.592 24.0377 129.592 24.6368H126.18C126.18 23.8036 126.456 23.0265 127.008 22.3056C127.561 21.5753 128.31 21.0042 129.256 20.5923C130.21 20.1803 131.273 19.9744 132.443 19.9744C134.222 19.9744 135.641 20.4238 136.698 21.3225C137.757 22.212 138.3 23.4666 138.328 25.0862V31.9394C138.328 33.3064 138.519 34.3971 138.904 35.2116V35.4503H135.42ZM131.671 32.9927C132.345 32.9927 132.977 32.8289 133.566 32.5012C134.166 32.1735 134.615 31.7335 134.915 31.1811V28.3163H133.075C131.811 28.3163 130.861 28.5362 130.224 28.9763C129.588 29.4163 129.27 30.0389 129.27 30.844C129.27 31.4995 129.485 32.0237 129.915 32.4169C130.356 32.8008 130.941 32.9927 131.671 32.9927ZM145.356 20.2553L145.455 22.0107C146.578 20.6532 148.052 19.9744 149.878 19.9744C153.043 19.9744 154.652 21.786 154.709 25.4093V35.4503H151.296V25.6058C151.296 24.6415 151.086 23.9299 150.665 23.4712C150.253 23.0031 149.574 22.7691 148.628 22.7691C147.252 22.7691 146.227 23.3916 145.552 24.6368V35.4503H142.14V20.2553H145.356ZM166.329 27.5719H162.369V35.4503H158.816V15.003H166.006C168.366 15.003 170.187 15.5319 171.469 16.5899C172.752 17.6479 173.394 19.1786 173.394 21.1821C173.394 22.549 173.061 23.6959 172.396 24.6228C171.741 25.5403 170.824 26.2472 169.644 26.7434L174.236 35.2677V35.4503H170.431L166.329 27.5719ZM162.369 24.7211H166.02C167.219 24.7211 168.155 24.4215 168.829 23.8223C169.504 23.2137 169.841 22.3851 169.841 21.3366C169.841 20.2412 169.527 19.3939 168.9 18.7947C168.282 18.1956 167.355 17.8866 166.119 17.8678H162.369V24.7211ZM183.414 35.7312C181.251 35.7312 179.495 35.0524 178.147 33.6949C176.808 32.328 176.139 30.5117 176.139 28.246V27.8247C176.139 26.308 176.429 24.9552 177.01 23.7661C177.6 22.5677 178.423 21.6362 179.481 20.9715C180.539 20.3068 181.719 19.9744 183.02 19.9744C185.089 19.9744 186.686 20.6344 187.809 21.9545C188.942 23.2746 189.508 25.1424 189.508 27.5579V28.9341H179.579C179.683 30.1887 180.099 31.1811 180.829 31.9114C181.569 32.6416 182.496 33.0068 183.61 33.0068C185.174 33.0068 186.447 32.3748 187.43 31.1109L189.269 32.8664C188.661 33.7745 187.847 34.4813 186.826 34.9869C185.815 35.4831 184.677 35.7312 183.414 35.7312ZM183.006 22.7129C182.07 22.7129 181.312 23.0406 180.731 23.6959C180.16 24.3513 179.795 25.2641 179.636 26.4344H186.138V26.1816C186.063 25.0394 185.759 24.1781 185.225 23.5976C184.691 23.0078 183.952 22.7129 183.006 22.7129ZM200.974 31.3216C200.974 30.713 200.722 30.2496 200.216 29.9312C199.72 29.6129 198.891 29.332 197.731 29.0886C196.57 28.8452 195.601 28.5362 194.823 28.1618C193.119 27.3379 192.268 26.1441 192.268 24.5807C192.268 23.2699 192.82 22.1745 193.924 21.2944C195.03 20.4144 196.434 19.9744 198.138 19.9744C199.954 19.9744 201.419 20.4238 202.533 21.3225C203.656 22.2214 204.218 23.3869 204.218 24.8194H200.806C200.806 24.1641 200.563 23.6211 200.076 23.1904C199.589 22.7503 198.943 22.5303 198.138 22.5303C197.389 22.5303 196.775 22.7035 196.298 23.0499C195.83 23.3963 195.596 23.8598 195.596 24.4402C195.596 24.9645 195.816 25.3718 196.256 25.662C196.696 25.9523 197.585 26.2472 198.924 26.5467C200.263 26.837 201.311 27.1881 202.07 27.6C202.838 28.0026 203.404 28.4894 203.769 29.0605C204.144 29.6316 204.331 30.3244 204.331 31.139C204.331 32.5058 203.765 33.6153 202.632 34.4673C201.499 35.3099 200.015 35.7312 198.179 35.7312C196.935 35.7312 195.825 35.5065 194.851 35.0571C193.878 34.6077 193.119 33.9898 192.577 33.2033C192.034 32.4169 191.762 31.5696 191.762 30.6615H195.077C195.123 31.4667 195.427 32.0892 195.989 32.5293C196.551 32.9599 197.295 33.1752 198.222 33.1752C199.12 33.1752 199.804 33.0068 200.272 32.6697C200.74 32.3233 200.974 31.8739 200.974 31.3216ZM211.879 16.5618V20.2553H214.561V22.7831H211.879V31.2653C211.879 31.8458 211.991 32.2671 212.216 32.5293C212.45 32.782 212.862 32.9084 213.452 32.9084C213.845 32.9084 214.243 32.8617 214.646 32.768V35.4082C213.868 35.6236 213.12 35.7312 212.399 35.7312C209.777 35.7312 208.466 34.2847 208.466 31.3917V22.7831H205.966V20.2553H208.466V16.5618H211.879ZM226.547 35.4503C226.397 35.1601 226.266 34.6873 226.154 34.0319C225.068 35.1648 223.738 35.7312 222.165 35.7312C220.639 35.7312 219.395 35.2958 218.43 34.4251C217.466 33.5545 216.984 32.4777 216.984 31.1952C216.984 29.5754 217.583 28.3349 218.781 27.4736C219.989 26.6029 221.712 26.1676 223.949 26.1676H226.042V25.1705C226.042 24.384 225.821 23.7568 225.382 23.2887C224.941 22.8111 224.272 22.5724 223.373 22.5724C222.596 22.5724 221.96 22.7691 221.464 23.1623C220.967 23.5461 220.719 24.0377 220.719 24.6368H217.306C217.306 23.8036 217.583 23.0265 218.135 22.3056C218.688 21.5753 219.436 21.0042 220.382 20.5923C221.337 20.1803 222.4 19.9744 223.57 19.9744C225.349 19.9744 226.767 20.4238 227.825 21.3225C228.883 22.212 229.426 23.4666 229.454 25.0862V31.9394C229.454 33.3064 229.646 34.3971 230.03 35.2116V35.4503H226.547ZM222.797 32.9927C223.472 32.9927 224.104 32.8289 224.693 32.5012C225.293 32.1735 225.742 31.7335 226.042 31.1811V28.3163H224.202C222.938 28.3163 221.988 28.5362 221.351 28.9763C220.714 29.4163 220.396 30.0389 220.396 30.844C220.396 31.4995 220.612 32.0237 221.042 32.4169C221.483 32.8008 222.068 32.9927 222.797 32.9927ZM242.522 33.9617C241.52 35.1414 240.097 35.7312 238.252 35.7312C236.604 35.7312 235.354 35.249 234.502 34.2847C233.66 33.3204 233.238 31.9254 233.238 30.0998V20.2553H236.651V30.0576C236.651 31.9863 237.452 32.9506 239.052 32.9506C240.71 32.9506 241.828 32.356 242.409 31.1671V20.2553H245.822V35.4503H242.606L242.522 33.9617ZM257.541 23.3729C257.091 23.298 256.628 23.2606 256.15 23.2606C254.587 23.2606 253.534 23.8598 252.991 25.0581V35.4503H249.578V20.2553H252.836L252.92 21.9545C253.744 20.6344 254.887 19.9744 256.347 19.9744C256.834 19.9744 257.237 20.0399 257.555 20.1709L257.541 23.3729ZM268.642 35.4503C268.492 35.1601 268.361 34.6873 268.249 34.0319C267.163 35.1648 265.833 35.7312 264.26 35.7312C262.734 35.7312 261.489 35.2958 260.525 34.4251C259.561 33.5545 259.078 32.4777 259.078 31.1952C259.078 29.5754 259.677 28.3349 260.875 27.4736C262.083 26.6029 263.806 26.1676 266.043 26.1676H268.136V25.1705C268.136 24.384 267.916 23.7568 267.477 23.2887C267.036 22.8111 266.366 22.5724 265.468 22.5724C264.691 22.5724 264.054 22.7691 263.558 23.1623C263.062 23.5461 262.814 24.0377 262.814 24.6368H259.401C259.401 23.8036 259.677 23.0265 260.23 22.3056C260.782 21.5753 261.531 21.0042 262.477 20.5923C263.432 20.1803 264.494 19.9744 265.665 19.9744C267.444 19.9744 268.862 20.4238 269.92 21.3225C270.978 22.212 271.52 23.4666 271.549 25.0862V31.9394C271.549 33.3064 271.741 34.3971 272.124 35.2116V35.4503H268.642ZM264.892 32.9927C265.566 32.9927 266.198 32.8289 266.788 32.5012C267.387 32.1735 267.836 31.7335 268.136 31.1811V28.3163H266.296C265.033 28.3163 264.083 28.5362 263.446 28.9763C262.809 29.4163 262.491 30.0389 262.491 30.844C262.491 31.4995 262.706 32.0237 263.137 32.4169C263.576 32.8008 264.162 32.9927 264.892 32.9927ZM278.577 20.2553L278.675 22.0107C279.799 20.6532 281.274 19.9744 283.1 19.9744C286.264 19.9744 287.874 21.786 287.931 25.4093V35.4503H284.518V25.6058C284.518 24.6415 284.307 23.9299 283.886 23.4712C283.473 23.0031 282.795 22.7691 281.85 22.7691C280.473 22.7691 279.448 23.3916 278.774 24.6368V35.4503H275.361V20.2553H278.577ZM295.984 16.5618V20.2553H298.666V22.7831H295.984V31.2653C295.984 31.8458 296.096 32.2671 296.321 32.5293C296.555 32.782 296.967 32.9084 297.557 32.9084C297.95 32.9084 298.348 32.8617 298.751 32.768V35.4082C297.973 35.6236 297.225 35.7312 296.504 35.7312C293.882 35.7312 292.571 34.2847 292.571 31.3917V22.7831H290.071V20.2553H292.571V16.5618H295.984Z" fill="white"/>
<path d="M36.9364 32.0179V17.5428L37.1876 17.4505L37.526 17.3275L37.8078 17.1994L38.0898 17.061L38.382 16.897L38.6177 16.7534L38.9201 16.5433L39.0995 16.4049C39.2072 16.3229 39.3148 16.2357 39.4174 16.1486L39.5352 16.0409C39.6531 15.9333 39.7659 15.8256 39.8735 15.7129C40.3936 15.1673 40.8212 14.5406 41.1396 13.8574L41.1703 13.7959C41.237 13.6524 41.2933 13.5088 41.3497 13.3602L41.4062 13.2013C41.4523 13.0731 41.4933 12.9398 41.5292 12.8066C41.565 12.6733 41.5702 12.6477 41.5906 12.5657C41.6112 12.4837 41.647 12.335 41.6676 12.2171C41.688 12.0993 41.7034 11.9865 41.7187 11.8686C41.7342 11.7507 41.7444 11.684 41.7547 11.5918C41.7547 11.3766 41.7854 11.1613 41.7854 10.9409C41.7873 9.96594 41.583 9.00162 41.1859 8.11128C40.7889 7.2209 40.208 6.42455 39.4815 5.77449C38.7549 5.12443 37.8991 4.63535 36.9702 4.33935C36.0414 4.04335 35.0604 3.94711 34.0917 4.05696L33.861 4.09797C33.6765 4.12873 33.492 4.15435 33.3125 4.19535C33.2203 4.19535 33.1331 4.25174 33.0409 4.27737C32.8717 4.32351 32.7026 4.36963 32.5283 4.43115C32.354 4.49265 32.354 4.50803 32.2669 4.54391C32.1798 4.57979 31.9645 4.66693 31.8159 4.73868C31.2145 3.67408 30.3407 2.7887 29.284 2.17346C28.2274 1.55821 27.0261 1.23528 25.8033 1.23781H25.7367C24.517 1.23713 23.3189 1.55983 22.2645 2.17301C21.2101 2.7862 20.3371 3.66796 19.7345 4.72844L19.6371 4.68743C19.4321 4.59004 19.2271 4.5029 19.0169 4.42602L18.8734 4.38501C18.6735 4.31838 18.4735 4.25687 18.2634 4.20561C18.1711 4.20561 18.0788 4.17485 17.9815 4.15435C17.8841 4.13385 17.6534 4.08771 17.4689 4.06721C16.5019 3.95829 15.5228 4.0547 14.5956 4.35015C13.6684 4.64559 12.814 5.13342 12.0883 5.78173C11.3625 6.43003 10.7819 7.22422 10.3842 8.11236C9.98645 9.00047 9.78068 9.96257 9.78027 10.9357C9.78027 11.1613 9.78027 11.3816 9.81618 11.5969C9.81618 11.6584 9.81618 11.7148 9.81618 11.7763C9.81618 11.9404 9.85719 12.0993 9.88792 12.2581C9.88792 12.3146 9.88792 12.3709 9.92383 12.4273C9.96139 12.5947 10.0041 12.7656 10.0519 12.9398L10.0879 13.0527C10.575 14.526 11.547 15.7908 12.8455 16.6407C13.0061 16.75 13.177 16.8508 13.3581 16.9431L13.4349 16.9892C13.5785 17.0661 13.7271 17.1327 13.8758 17.1994C14.0932 17.2981 14.3156 17.3853 14.5421 17.4608L14.9009 17.5633V32.0179C14.8958 34.6218 20.4419 35.9955 25.9162 35.9955C31.3904 35.9955 36.9364 34.6218 36.9364 32.0179ZM25.9162 34.4578C19.7652 34.4578 16.4335 32.8534 16.4335 32.0333V17.8247H16.7C17.8598 17.8291 19.0019 17.5419 20.0215 16.9892C20.1135 16.9426 20.1952 16.8781 20.2616 16.7994C20.3282 16.7207 20.3782 16.6293 20.4087 16.5309C20.4393 16.4324 20.4497 16.3289 20.4394 16.2263C20.4291 16.1238 20.3983 16.0243 20.3487 15.934C20.2993 15.8436 20.2321 15.764 20.1512 15.7001C20.0704 15.6362 19.9775 15.5892 19.8781 15.5618C19.7787 15.5345 19.6749 15.5274 19.5727 15.5411C19.4705 15.5547 19.3722 15.5887 19.2834 15.6412C18.1207 16.2818 16.7605 16.4646 15.4699 16.1537C15.0948 16.0629 14.7306 15.9323 14.3832 15.7642L14.1679 15.6616L14.0654 15.6002C13.9475 15.5335 13.8296 15.4669 13.7219 15.39L13.6758 15.3592C13.5426 15.2669 13.4144 15.1747 13.2965 15.0722C12.627 14.5219 12.0995 13.8188 11.7588 13.0219C11.6973 12.8733 11.641 12.7246 11.5948 12.5708L11.564 12.4786C11.5281 12.3556 11.4923 12.2274 11.4667 12.0941L11.4359 11.9609C11.4359 11.8379 11.3949 11.7148 11.3796 11.5867C11.3796 11.5406 11.3796 11.4944 11.3796 11.4483C11.3796 11.2792 11.3539 11.1049 11.3539 10.9357C11.3534 10.1678 11.5174 9.4088 11.8348 8.70958C12.1522 8.01039 12.6158 7.3873 13.1941 6.88224C13.7726 6.37717 14.4524 6.00186 15.188 5.78153C15.9236 5.56121 16.6978 5.50099 17.4587 5.60494C18.2312 5.71904 18.9694 6.00071 19.6217 6.43018H19.6576C19.752 6.49347 19.8593 6.53502 19.9717 6.55186C20.0841 6.56869 20.1989 6.56039 20.3077 6.52754C20.4165 6.4947 20.5168 6.43813 20.6011 6.36191C20.6854 6.28569 20.7518 6.19172 20.7955 6.08676C21.1942 5.10033 21.8792 4.25592 22.7622 3.66239C23.6452 3.06887 24.6858 2.75343 25.7497 2.75674C26.8137 2.76004 27.8522 3.08195 28.7315 3.68097C29.6108 4.27997 30.2906 5.12862 30.683 6.11751C30.7264 6.22402 30.7931 6.31944 30.8782 6.39677C30.9633 6.47409 31.0647 6.53133 31.1748 6.56428C31.285 6.59724 31.4012 6.60506 31.5148 6.58718C31.6284 6.56929 31.7365 6.52615 31.8313 6.46093L32.1183 6.28154L32.2208 6.26615L32.4976 6.11751L32.5744 6.0765L32.8513 5.95349L32.9435 5.91248L33.2101 5.82022L33.3177 5.78434L33.5791 5.71258L33.7072 5.6767L33.9584 5.63057L34.0968 5.60494L34.3582 5.57419H34.4966H34.9015C36.3218 5.5755 37.6841 6.13821 38.6913 7.13964C39.6985 8.14107 40.269 9.50001 40.2785 10.9203C40.2785 11.0895 40.2785 11.2586 40.2528 11.4329C40.2528 11.5047 40.2528 11.5764 40.2221 11.6482C40.1913 11.72 40.2221 11.8276 40.1811 11.9199C40.1401 12.0121 40.1452 12.0993 40.1196 12.1915C40.0939 12.2838 40.0888 12.3197 40.0683 12.3811C40.0478 12.4427 40.0068 12.5862 39.9709 12.6836L39.9248 12.8117C39.8838 12.9245 39.8376 13.0373 39.7864 13.1449L39.7608 13.2013C39.5129 13.7272 39.1824 14.2101 38.7817 14.6314C38.6997 14.7185 38.6125 14.8005 38.5254 14.8774L38.4281 14.9645L38.1871 15.1593L38.0385 15.2721L37.8078 15.431L37.6182 15.5438L37.3927 15.6719L37.1671 15.7795L36.9519 15.8769L36.6802 16.005L36.4803 16.0769C35.7938 16.2864 35.0722 16.3563 34.3582 16.2824C33.6442 16.2084 32.9523 15.9921 32.3233 15.6463C32.2346 15.5938 32.1362 15.5598 32.034 15.5462C31.9318 15.5325 31.828 15.5396 31.7286 15.567C31.6292 15.5942 31.5363 15.6412 31.4555 15.7052C31.3746 15.7691 31.3075 15.8487 31.2579 15.9391C31.2085 16.0294 31.1776 16.1289 31.1674 16.2314C31.157 16.334 31.1674 16.4376 31.198 16.536C31.2285 16.6345 31.2785 16.7258 31.345 16.8045C31.4116 16.8832 31.4932 16.9478 31.5852 16.9943C32.5983 17.5452 33.733 17.8342 34.8862 17.835C35.0553 17.835 35.2193 17.835 35.3988 17.835V32.0179C35.3988 32.8431 32.0516 34.4578 25.9162 34.4578Z" fill="white"/>
<path d="M31.7343 9.70023C31.6404 9.66276 31.5401 9.64418 31.439 9.64558C31.3379 9.6469 31.2381 9.66818 31.1453 9.7082C31.0525 9.74822 30.9684 9.80607 30.898 9.87863C30.8276 9.95111 30.7721 10.0368 30.7348 10.1307C30.3383 11.1334 29.6495 11.9938 28.7579 12.6C27.8662 13.2063 26.8129 13.5304 25.7346 13.5304C24.6564 13.5304 23.6031 13.2063 22.7114 12.6C21.8197 11.9938 21.1309 11.1334 20.7345 10.1307C20.6562 9.94618 20.5089 9.79949 20.324 9.72192C20.1391 9.64443 19.9312 9.64221 19.7447 9.71568C19.5581 9.78922 19.4077 9.93278 19.3255 10.1156C19.2432 10.2985 19.2357 10.5063 19.3044 10.6946C19.8143 11.9841 20.7 13.0905 21.8467 13.8702C22.9934 14.6498 24.348 15.0668 25.7346 15.0668C27.1213 15.0668 28.4759 14.6498 29.6225 13.8702C30.7693 13.0905 31.655 11.9841 32.1649 10.6946C32.2389 10.5055 32.2352 10.2949 32.1546 10.1086C32.0739 9.92234 31.9229 9.7755 31.7343 9.70023Z" fill="white"/>
<path d="M22.3486 41.0441C20.7135 41.0441 19.837 41.6591 18.7606 43.5813C17.5766 45.6675 16.331 46.7285 15.0546 46.7285C14.321 46.7272 13.6177 46.4351 13.099 45.9164C12.5802 45.3975 12.2882 44.6943 12.2868 43.9606C12.2868 43.7567 12.2058 43.5612 12.0616 43.4169C11.9174 43.2728 11.7218 43.1918 11.5179 43.1918C11.314 43.1918 11.1185 43.2728 10.9743 43.4169C10.83 43.5612 10.749 43.7567 10.749 43.9606C10.7504 45.1022 11.2045 46.1965 12.0116 47.0037C12.8188 47.8108 13.9132 48.2649 15.0546 48.2662C16.9256 48.2662 18.6427 46.9438 20.0984 44.3399C21.0467 42.6587 21.5183 42.5818 22.3486 42.5818C22.5562 42.5679 22.7639 42.6078 22.9515 42.6976C23.1391 42.7874 23.3005 42.9241 23.4199 43.0944C23.4733 43.1826 23.544 43.2592 23.6278 43.3195C23.7114 43.3798 23.8063 43.4227 23.9069 43.4455C24.0076 43.4685 24.1117 43.4708 24.2132 43.4526C24.3147 43.4344 24.4116 43.3959 24.498 43.3395C24.5844 43.2831 24.6585 43.2099 24.7159 43.1241C24.7734 43.0385 24.813 42.9421 24.8324 42.8408C24.8519 42.7396 24.8508 42.6354 24.8291 42.5345C24.8075 42.4336 24.7658 42.3381 24.7065 42.2538C24.447 41.87 24.0948 41.558 23.6827 41.3465C23.2705 41.135 22.8117 41.031 22.3486 41.0441Z" fill="white"/>
<path d="M39.8168 43.1712C39.6129 43.1712 39.4173 43.2522 39.2731 43.3965C39.1289 43.5407 39.048 43.7362 39.048 43.9401C39.0466 44.6738 38.7545 45.377 38.2358 45.8958C37.717 46.4146 37.0137 46.7067 36.28 46.708C35.0038 46.708 33.7581 45.647 32.5741 43.5608C31.4875 41.6438 30.6109 41.0236 28.9861 41.0236C28.5221 41.0136 28.063 41.1212 27.6516 41.3363C27.2403 41.5513 26.89 41.8669 26.6334 42.2537C26.5779 42.3382 26.5395 42.4328 26.5205 42.5321C26.5016 42.6314 26.5023 42.7335 26.5228 42.8325C26.5432 42.9315 26.583 43.0254 26.6399 43.1091C26.6966 43.1927 26.7694 43.2644 26.8538 43.3199C26.9383 43.3754 27.0329 43.4138 27.1322 43.4328C27.2314 43.4518 27.3335 43.4509 27.4325 43.4305C27.5315 43.41 27.6255 43.3702 27.7092 43.3135C27.7928 43.2567 27.8644 43.184 27.92 43.0995C28.0394 42.9291 28.2007 42.7925 28.3884 42.7027C28.5761 42.6129 28.7836 42.5731 28.9912 42.587C29.8216 42.587 30.2983 42.6638 31.2517 44.3399C32.7279 46.9438 34.4245 48.2662 36.2955 48.2662C37.4369 48.2649 38.5313 47.8108 39.3385 47.0037C40.1456 46.1965 40.5997 45.1022 40.6011 43.9606C40.6039 43.8566 40.5855 43.7532 40.5472 43.6565C40.5088 43.5597 40.4512 43.4719 40.3779 43.3981C40.3046 43.3242 40.2171 43.2661 40.1206 43.2271C40.0241 43.1881 39.9208 43.1692 39.8168 43.1712Z" fill="white"/>
</svg>
