<svg width="16" height="16" viewBox="0 0 16 16" fill="none" xmlns="http://www.w3.org/2000/svg">
<g id="clarity:search-line" clip-path="url(#clip0_168_9150)">
<path id="Vector" d="M7.25825 2.24461C8.22097 2.24373 9.16233 2.52841 9.96323 3.06263C10.7641 3.59685 11.3886 4.35661 11.7576 5.2458C12.1267 6.13499 12.2237 7.11365 12.0364 8.05799C11.8491 9.00232 11.386 9.86989 10.7055 10.551C10.0251 11.232 9.15793 11.696 8.21377 11.8841C7.26961 12.0722 6.29085 11.9761 5.40133 11.6079C4.5118 11.2397 3.75147 10.6159 3.21652 9.81551C2.68156 9.0151 2.39603 8.074 2.39603 7.11127C2.40186 5.82312 2.91587 4.58932 3.82632 3.67804C4.73678 2.76675 5.9701 2.25162 7.25825 2.24461ZM7.25825 1.3335C6.11551 1.3335 4.99844 1.67236 4.04829 2.30723C3.09814 2.9421 2.35758 3.84446 1.92028 4.90021C1.48297 5.95596 1.36855 7.11768 1.59149 8.23846C1.81443 9.35924 2.36471 10.3887 3.17274 11.1968C3.98078 12.0048 5.01028 12.5551 6.13106 12.778C7.25184 13.001 8.41356 12.8866 9.46931 12.4492C10.5251 12.0119 11.4274 11.2714 12.0623 10.3212C12.6972 9.37108 13.036 8.25401 13.036 7.11127C13.036 5.57891 12.4273 4.10931 11.3438 3.02577C10.2602 1.94222 8.79061 1.3335 7.25825 1.3335Z" fill="#939393"/>
<path id="Vector_2" d="M15.5551 14.7953L12.2795 11.4976L11.6484 12.1242L14.924 15.422C14.9651 15.4634 15.014 15.4964 15.0679 15.5189C15.1218 15.5414 15.1796 15.5532 15.238 15.5534C15.2964 15.5536 15.3542 15.5423 15.4083 15.5201C15.4623 15.498 15.5114 15.4654 15.5529 15.4242C15.5943 15.3831 15.6272 15.3342 15.6498 15.2803C15.6723 15.2264 15.684 15.1686 15.6842 15.1102C15.6844 15.0518 15.6731 14.994 15.651 14.9399C15.6288 14.8859 15.5963 14.8368 15.5551 14.7953Z" fill="#939393"/>
</g>
<defs>
<clipPath id="clip0_168_9150">
<rect width="16" height="16" fill="white"/>
</clipPath>
</defs>
</svg>
