<svg width="25" height="24" viewBox="0 0 25 24" fill="none" xmlns="http://www.w3.org/2000/svg">
<g id="material-symbols:mail-outline">
<path id="Vector" d="M4.16797 20C3.61797 20 3.1473 19.8043 2.75597 19.413C2.36464 19.0217 2.16864 18.5507 2.16797 18V6C2.16797 5.45 2.36397 4.97933 2.75597 4.588C3.14797 4.19667 3.61864 4.00067 4.16797 4H20.168C20.718 4 21.189 4.196 21.581 4.588C21.973 4.98 22.1686 5.45067 22.168 6V18C22.168 18.55 21.9723 19.021 21.581 19.413C21.1896 19.805 20.7186 20.0007 20.168 20H4.16797ZM12.168 13L4.16797 8V18H20.168V8L12.168 13ZM12.168 11L20.168 6H4.16797L12.168 11ZM4.16797 8V6V18V8Z" fill="#FFA800"/>
</g>
</svg>
