<svg width="24" height="26" viewBox="0 0 24 26" fill="none" xmlns="http://www.w3.org/2000/svg">
<g id="Vector">
<path id="Vector_2" d="M8.09639 0.358398L15.1217 4.45748L23.1325 1.11946V10.9508H20.8193V4.58934L16.1928 6.51743V10.9508H13.8795V6.40987L9.25301 3.71146V17.805L11.4136 19.0657L10.2477 21.0632L8.01079 19.7573L0 23.0954V5.08206L8.09639 0.358398ZM6.93976 17.6974V3.71146L2.31325 6.40987V19.6255L6.93976 17.6974ZM18.506 14.4207C17.6624 14.4207 16.8534 14.7558 16.2569 15.3523C15.6604 15.9488 15.3253 16.7578 15.3253 17.6014C15.3253 19.0495 16.1754 20.4397 17.1933 21.5594C17.664 22.0775 18.1382 22.5009 18.506 22.8027C18.8738 22.502 19.348 22.0775 19.8188 21.5594C20.8366 20.4397 21.6867 19.0495 21.6867 17.6014C21.6867 16.7578 21.3516 15.9488 20.7551 15.3523C20.1586 14.7558 19.3496 14.4207 18.506 14.4207ZM18.506 25.6411L17.8641 25.2143L17.8618 25.2131L17.8572 25.2097L17.8433 25.2004L17.797 25.168C17.5587 25 17.3261 24.8241 17.0996 24.6406C16.5228 24.1736 15.9819 23.6641 15.4814 23.1162C14.3306 21.8508 13.012 19.9158 13.012 17.6014C13.012 16.1443 13.5909 14.7469 14.6212 13.7166C15.6515 12.6862 17.0489 12.1074 18.506 12.1074C19.9631 12.1074 21.3605 12.6862 22.3909 13.7166C23.4212 14.7469 24 16.1443 24 17.6014C24 19.9158 22.6814 21.8508 21.5306 23.1162C20.8323 23.8789 20.0563 24.5666 19.215 25.168L19.1688 25.2004L19.1549 25.2097L19.1503 25.2131H19.148L18.506 25.6411ZM17.0602 16.7339H19.9518V19.0472H17.0602V16.7339Z" fill="#FFA800"/>
</g>
</svg>
