<svg width="24" height="26" viewBox="0 0 24 26" fill="none" xmlns="http://www.w3.org/2000/svg">
<g id="mdi:web">
<path id="Vector" d="M16.36 15.1072C16.44 14.4119 16.5 13.7166 16.5 13.0003C16.5 12.2839 16.44 11.5887 16.36 10.8934H19.74C19.9 11.5676 20 12.2734 20 13.0003C20 13.7272 19.9 14.433 19.74 15.1072M14.59 20.9643C15.19 19.795 15.65 18.5309 15.97 17.2141H18.92C17.9512 18.9715 16.4141 20.3028 14.59 20.9643ZM14.34 15.1072H9.66C9.56 14.4119 9.5 13.7166 9.5 13.0003C9.5 12.2839 9.56 11.5781 9.66 10.8934H14.34C14.43 11.5781 14.5 12.2839 14.5 13.0003C14.5 13.7166 14.43 14.4119 14.34 15.1072ZM12 21.3857C11.17 20.1216 10.5 18.7205 10.09 17.2141H13.91C13.5 18.7205 12.83 20.1216 12 21.3857ZM8 8.7865H5.08C6.03886 7.02431 7.5748 5.69093 9.4 5.03623C8.8 6.20555 8.35 7.46969 8 8.7865ZM5.08 17.2141H8C8.35 18.5309 8.8 19.795 9.4 20.9643C7.57862 20.3024 6.04485 18.9709 5.08 17.2141ZM4.26 15.1072C4.1 14.433 4 13.7272 4 13.0003C4 12.2734 4.1 11.5676 4.26 10.8934H7.64C7.56 11.5887 7.5 12.2839 7.5 13.0003C7.5 13.7166 7.56 14.4119 7.64 15.1072M12 4.60432C12.83 5.86845 13.5 7.28007 13.91 8.7865H10.09C10.5 7.28007 11.17 5.86845 12 4.60432ZM18.92 8.7865H15.97C15.657 7.48176 15.1936 6.2223 14.59 5.03623C16.43 5.6999 17.96 7.03778 18.92 8.7865ZM12 2.46582C6.47 2.46582 2 7.20633 2 13.0003C2 15.7942 3.05357 18.4737 4.92893 20.4493C5.85752 21.4275 6.95991 22.2034 8.17317 22.7328C9.38642 23.2623 10.6868 23.5347 12 23.5347C14.6522 23.5347 17.1957 22.4249 19.0711 20.4493C20.9464 18.4737 22 15.7942 22 13.0003C22 11.6169 21.7413 10.247 21.2388 8.96892C20.7362 7.69082 19.9997 6.52951 19.0711 5.55129C18.1425 4.57308 17.0401 3.79711 15.8268 3.26771C14.6136 2.7383 13.3132 2.46582 12 2.46582Z" fill="#FFA800"/>
</g>
</svg>
