<svg width="32" height="32" viewBox="0 0 32 32" fill="none" xmlns="http://www.w3.org/2000/svg">
<g id="prime:phone">
<path id="Vector" d="M24.5328 27.6667H24.2261C20.7712 27.2908 17.4518 26.1128 14.5328 24.2267C11.821 22.4995 9.51865 20.2017 7.78614 17.4933C5.89568 14.5667 4.7175 11.2376 4.34614 7.77335C4.30368 7.36014 4.34561 6.94262 4.46937 6.54611C4.59314 6.1496 4.79617 5.78236 5.06614 5.46668C5.32873 5.14677 5.65284 4.88281 6.01928 4.69043C6.38572 4.49805 6.78704 4.38116 7.19948 4.34668H10.6661C11.417 4.34744 12.1428 4.61664 12.7125 5.10566C13.2822 5.59469 13.6583 6.27132 13.7728 7.01335C13.8994 7.96652 14.1366 8.9017 14.4795 9.80001C14.6881 10.3645 14.7311 10.9769 14.6036 11.565C14.476 12.1531 14.1832 12.6926 13.7595 13.12L12.9461 13.9333C14.2267 15.955 15.9444 17.6636 17.9728 18.9333L18.7861 18.1333C19.2135 17.7097 19.753 17.4168 20.3412 17.2893C20.9293 17.1617 21.5416 17.2048 22.1061 17.4133C23.0054 17.7531 23.9403 17.9902 24.8928 18.12C25.6475 18.2335 26.3349 18.6185 26.8258 19.2027C27.3168 19.787 27.5777 20.5304 27.5595 21.2933V24.4933C27.5595 25.3256 27.2298 26.1239 26.6426 26.7137C26.0553 27.3034 25.2584 27.6365 24.4261 27.64L24.5328 27.6667ZM10.6661 6.33335H7.47948C7.32301 6.34369 7.17026 6.38565 7.03047 6.4567C6.89068 6.52774 6.76674 6.62639 6.66614 6.74668C6.56824 6.85936 6.49414 6.99069 6.44832 7.13276C6.40249 7.27482 6.38588 7.42469 6.39948 7.57335C6.72279 10.7157 7.77763 13.7387 9.47948 16.4C11.0483 18.8623 13.1372 20.9512 15.5995 22.52C18.2625 24.2398 21.2888 25.317 24.4395 25.6667C24.6033 25.6759 24.7673 25.6511 24.9211 25.5937C25.0749 25.5363 25.2151 25.4477 25.3328 25.3333C25.5451 25.1157 25.6646 24.8241 25.6661 24.52V21.3333C25.6721 21.0527 25.575 20.7797 25.3932 20.5659C25.2113 20.3521 24.9574 20.2124 24.6795 20.1733C23.5779 20.0252 22.4959 19.757 21.4528 19.3733C21.2473 19.2965 21.0242 19.2795 20.8095 19.3244C20.5947 19.3692 20.3971 19.474 20.2395 19.6267L18.9061 20.96C18.75 21.1123 18.5489 21.2101 18.3327 21.2389C18.1165 21.2677 17.8967 21.226 17.7061 21.12C14.861 19.5123 12.5061 17.162 10.8928 14.32C10.7824 14.1306 10.7382 13.9099 10.7671 13.6926C10.7961 13.4753 10.8966 13.2738 11.0528 13.12L12.3861 11.7867C12.539 11.632 12.6442 11.4367 12.6892 11.2239C12.7341 11.0111 12.7168 10.7899 12.6395 10.5867C12.2544 9.54399 11.9861 8.46183 11.8395 7.36001C11.8064 7.0737 11.6679 6.80996 11.451 6.62017C11.2341 6.43038 10.9543 6.32813 10.6661 6.33335Z" fill="#FFA800"/>
</g>
</svg>
