<svg width="19" height="18" viewBox="0 0 19 18" fill="none" xmlns="http://www.w3.org/2000/svg">
<g id="octicon:sort-desc-24">
<path id="Vector" d="M14.125 12.33V5.0625C14.125 4.91332 14.0657 4.77024 13.9602 4.66475C13.8548 4.55926 13.7117 4.5 13.5625 4.5C13.4133 4.5 13.2702 4.55926 13.1648 4.66475C13.0593 4.77024 13 4.91332 13 5.0625V12.33L11.335 10.665C11.2835 10.6097 11.2214 10.5654 11.1524 10.5347C11.0834 10.5039 11.0089 10.4874 10.9334 10.4861C10.8579 10.4847 10.7828 10.4986 10.7128 10.5269C10.6428 10.5552 10.5791 10.5973 10.5257 10.6507C10.4723 10.7041 10.4302 10.7678 10.4019 10.8378C10.3736 10.9078 10.3597 10.9829 10.3611 11.0584C10.3624 11.1339 10.3789 11.2084 10.4097 11.2774C10.4404 11.3464 10.4847 11.4085 10.54 11.46L13.165 14.085C13.2705 14.1903 13.4134 14.2495 13.5625 14.2495C13.7116 14.2495 13.8545 14.1903 13.96 14.085L16.585 11.46C16.6403 11.4085 16.6846 11.3464 16.7153 11.2774C16.7461 11.2084 16.7626 11.1339 16.7639 11.0584C16.7653 10.9829 16.7514 10.9078 16.7231 10.8378C16.6948 10.7678 16.6527 10.7041 16.5993 10.6507C16.5459 10.5973 16.4822 10.5552 16.4122 10.5269C16.3422 10.4986 16.2671 10.4847 16.1916 10.4861C16.1161 10.4874 16.0416 10.5039 15.9726 10.5347C15.9036 10.5654 15.8415 10.6097 15.79 10.665L14.125 12.33ZM1.75 5.4375C1.75 5.28832 1.80926 5.14524 1.91475 5.03975C2.02024 4.93426 2.16332 4.875 2.3125 4.875H9.4375C9.58668 4.875 9.72976 4.93426 9.83525 5.03975C9.94074 5.14524 10 5.28832 10 5.4375C10 5.58668 9.94074 5.72976 9.83525 5.83525C9.72976 5.94074 9.58668 6 9.4375 6H2.3125C2.16332 6 2.02024 5.94074 1.91475 5.83525C1.80926 5.72976 1.75 5.58668 1.75 5.4375ZM1.75 9.1875C1.75 9.03832 1.80926 8.89524 1.91475 8.78975C2.02024 8.68426 2.16332 8.625 2.3125 8.625H6.4375C6.58668 8.625 6.72976 8.68426 6.83525 8.78975C6.94074 8.89524 7 9.03832 7 9.1875C7 9.33668 6.94074 9.47976 6.83525 9.58525C6.72976 9.69074 6.58668 9.75 6.4375 9.75H2.3125C2.16332 9.75 2.02024 9.69074 1.91475 9.58525C1.80926 9.47976 1.75 9.33668 1.75 9.1875ZM1.75 12.9375C1.75 12.7883 1.80926 12.6452 1.91475 12.5398C2.02024 12.4343 2.16332 12.375 2.3125 12.375H4.9375C5.08668 12.375 5.22976 12.4343 5.33525 12.5398C5.44074 12.6452 5.5 12.7883 5.5 12.9375C5.5 13.0867 5.44074 13.2298 5.33525 13.3352C5.22976 13.4407 5.08668 13.5 4.9375 13.5H2.3125C2.16332 13.5 2.02024 13.4407 1.91475 13.3352C1.80926 13.2298 1.75 13.0867 1.75 12.9375Z" fill="black"/>
</g>
</svg>
