<svg width="24" height="27" viewBox="0 0 24 27" fill="none" xmlns="http://www.w3.org/2000/svg">
<g id="wi:time-3">
<path id="Vector" d="M2.99219 13.0537C2.99219 11.3344 3.40019 9.74162 4.20819 8.28366C5.01619 6.82569 6.11219 5.67111 7.49619 4.81993C8.88019 3.96874 10.3842 3.54736 12.0082 3.54736C13.2242 3.54736 14.3922 3.80019 15.5042 4.29742C16.6162 4.79464 17.5682 5.47728 18.3762 6.32003C19.1842 7.16279 19.8242 8.1741 20.2962 9.35396C20.7682 10.5338 21.0082 11.7558 21.0082 13.0537C21.0082 14.3346 20.7682 15.5651 20.2962 16.7365C19.8242 17.9079 19.1762 18.9192 18.3762 19.762C17.5762 20.6048 16.6162 21.279 15.5042 21.7762C14.3922 22.2734 13.2322 22.5262 12.0082 22.5262C10.7842 22.5262 9.60819 22.2734 8.49619 21.7762C7.38419 21.279 6.42419 20.5963 5.61619 19.7536C4.80819 18.9108 4.17619 17.8995 3.69619 16.7365C3.21619 15.5735 2.99219 14.3431 2.99219 13.0537ZM4.97619 13.0537C4.97619 15.051 5.66419 16.7871 7.04819 18.2619C8.43219 19.7199 10.0802 20.4446 12.0082 20.4446C13.2722 20.4446 14.4482 20.116 15.5202 19.4502C16.5922 18.7844 17.4562 17.8911 18.0882 16.7534C18.7202 15.6156 19.0402 14.3852 19.0402 13.0537C19.0402 11.7221 18.7202 10.4833 18.0882 9.34553C17.4562 8.20781 16.6002 7.30606 15.5202 6.64028C14.4402 5.9745 13.2722 5.64583 12.0082 5.64583C10.7442 5.64583 9.56819 5.9745 8.49619 6.64028C7.42419 7.30606 6.56019 8.20781 5.92019 9.34553C5.28019 10.4833 4.97619 11.7221 4.97619 13.0537ZM11.3122 13.0537V7.4409C11.3122 7.24706 11.3762 7.07851 11.5042 6.94367C11.6322 6.80883 11.7922 6.74141 11.9762 6.74141C12.1602 6.74141 12.3202 6.80883 12.4482 6.94367C12.5762 7.07851 12.6402 7.24706 12.6402 7.4409V12.3457H15.6642C15.8482 12.3457 16.0082 12.4132 16.1362 12.548C16.2642 12.6828 16.3282 12.8514 16.3282 13.0452C16.3282 13.2306 16.2642 13.3992 16.1362 13.5425C16.0082 13.6857 15.8482 13.7531 15.6642 13.7531H12.1122C12.0882 13.7616 12.0402 13.7616 11.9682 13.7616C11.8802 13.7633 11.7929 13.746 11.7115 13.7108C11.6301 13.6756 11.5565 13.6232 11.495 13.5569C11.4336 13.4906 11.3856 13.4117 11.3542 13.3252C11.3228 13.2387 11.3085 13.1462 11.3122 13.0537Z" fill="#FFA800"/>
</g>
</svg>
