<svg width="49" height="48" viewBox="0 0 49 48" fill="none" xmlns="http://www.w3.org/2000/svg">
<g id="material-symbols-light:list-alt-outline">
<path id="Vector" d="M16.734 33.076C17.17 33.076 17.5347 32.9287 17.828 32.634C18.1213 32.338 18.268 31.9713 18.268 31.534C18.268 31.0967 18.1213 30.732 17.828 30.44C17.532 30.1467 17.1653 30 16.728 30C16.2907 30 15.9253 30.148 15.632 30.444C15.3387 30.7387 15.192 31.1047 15.192 31.542C15.192 31.978 15.34 32.3427 15.636 32.636C15.9307 32.9293 16.2967 33.076 16.734 33.076ZM16.734 25.538C17.17 25.538 17.5347 25.3907 17.828 25.096C18.1213 24.8 18.268 24.4333 18.268 23.996C18.268 23.5587 18.1213 23.194 17.828 22.902C17.532 22.6087 17.1653 22.462 16.728 22.462C16.2907 22.462 15.9253 22.6093 15.632 22.904C15.3387 23.2 15.192 23.5667 15.192 24.004C15.192 24.4413 15.34 24.806 15.636 25.098C15.9307 25.3913 16.2967 25.538 16.734 25.538ZM16.734 18C17.17 18 17.5347 17.852 17.828 17.556C18.1213 17.2613 18.268 16.8953 18.268 16.458C18.268 16.022 18.1213 15.6573 17.828 15.364C17.532 15.0707 17.1653 14.924 16.728 14.924C16.2907 14.924 15.9253 15.0713 15.632 15.366C15.3387 15.662 15.192 16.0287 15.192 16.466C15.192 16.9033 15.34 17.268 15.636 17.56C15.9307 17.8533 16.2967 18 16.734 18ZM22.884 32.54H33.654V30.54H22.884V32.54ZM22.884 25H33.654V23H22.884V25ZM22.884 17.46H33.654V15.46H22.884V17.46ZM11.73 40C10.81 40 10.042 39.692 9.426 39.076C8.80867 38.4587 8.5 37.69 8.5 36.77V11.23C8.5 10.31 8.80867 9.542 9.426 8.926C10.042 8.30867 10.81 8 11.73 8H37.27C38.19 8 38.958 8.30867 39.574 8.926C40.1913 9.542 40.5 10.31 40.5 11.23V36.77C40.5 37.69 40.192 38.458 39.576 39.074C38.9587 39.6913 38.19 40 37.27 40H11.73ZM11.73 38H37.27C37.5767 38 37.8587 37.872 38.116 37.616C38.372 37.3587 38.5 37.0767 38.5 36.77V11.23C38.5 10.9233 38.372 10.6413 38.116 10.384C37.8587 10.128 37.5767 10 37.27 10H11.73C11.4233 10 11.1413 10.128 10.884 10.384C10.628 10.6413 10.5 10.9233 10.5 11.23V36.77C10.5 37.0767 10.628 37.3587 10.884 37.616C11.1413 37.872 11.4233 38 11.73 38Z" fill="white"/>
</g>
</svg>
